<?xml version="1.0" encoding="utf-8"?>
<!-- Generator: Adobe Illustrator 21.0.0, SVG Export Plug-In . SVG Version: 6.00 Build 0)  -->
<svg version="1.1" id="Слой_1" xmlns="http://www.w3.org/2000/svg" xmlns:xlink="http://www.w3.org/1999/xlink" x="0px" y="0px"
	 viewBox="0 0 595.3 612" style="enable-background:new 0 0 595.3 612;" xml:space="preserve">
<path d="M590.3,309.3c0-161.9-131.2-293.1-293.1-293.1C135.3,16.2,4.1,147.5,4.1,309.3c0,161.9,131.2,293.1,293.1,293.1
	C459,602.4,590.3,471.2,590.3,309.3 M30.7,309.3C30.7,162.2,150,42.9,297.1,42.9c147.1,0,266.5,119.3,266.5,266.5
	c0,147.2-119.3,266.5-266.5,266.5C150,575.8,30.7,456.5,30.7,309.3"/>
<path d="M308.4,478.5V309.3h55.8l8.8-56.1h-64.6v-28.1c0-14.6,4.8-28.6,25.8-28.6h42v-56h-59.6c-50.1,0-63.8,33-63.8,78.7v33.9
	h-34.4v56.1h34.4v169.2L308.4,478.5L308.4,478.5z"/>
</svg>
