<?xml version="1.0" encoding="utf-8"?>
<!-- Generator: Adobe Illustrator 21.0.0, SVG Export Plug-In . SVG Version: 6.00 Build 0)  -->
<svg version="1.1" id="Capa_1" xmlns="http://www.w3.org/2000/svg" xmlns:xlink="http://www.w3.org/1999/xlink" x="0px" y="0px"
	 viewBox="0 0 485.2 378" style="enable-background:new 0 0 485.2 378;" xml:space="preserve">
<g>
	<path d="M485.2,310.8c0,10.6-3,20.5-7.8,29.2L324.2,168.6L475.8,36c5.9,9.4,9.4,20.3,9.4,32.2L485.2,310.8L485.2,310.8z
		 M242.6,199.7L453.5,15.2c-8.7-4.7-18.4-7.6-28.9-7.6H60.7c-10.5,0-20.3,2.9-28.9,7.6L242.6,199.7z M301.4,188.5l-48.8,42.7
		c-2.9,2.5-6.4,3.7-10,3.7c-3.6,0-7.1-1.2-10-3.7l-48.8-42.7L28.7,362.1c9.3,5.8,20.2,9.3,32,9.3h363.9c11.8,0,22.7-3.5,32-9.3
		L301.4,188.5z M9.4,36C3.6,45.3,0,56.3,0,68.2v242.6c0,10.6,3,20.5,7.8,29.2L161,168.5L9.4,36z"/>
</g>
</svg>
