<?xml version="1.0" encoding="utf-8"?>
<!-- Generator: Adobe Illustrator 21.0.0, SVG Export Plug-In . SVG Version: 6.00 Build 0)  -->
<svg version="1.1" id="Слой_1" xmlns="http://www.w3.org/2000/svg" xmlns:xlink="http://www.w3.org/1999/xlink" x="0px" y="0px"
	 viewBox="0 0 595.3 612" style="enable-background:new 0 0 595.3 612;" xml:space="preserve">
<style type="text/css">
	.st0{clip-path:url(#SVGID_2_);fill:#FFFFFF;}
	.st1{clip-path:url(#SVGID_4_);fill:none;stroke:#666666;stroke-width:1.5;stroke-miterlimit:10;}
</style>
<g>
	<g>
		<defs>
			<rect id="SVGID_1_" x="-385" y="-1143" width="1366" height="3139"/>
		</defs>
		<clipPath id="SVGID_2_">
			<use xlink:href="#SVGID_1_"  style="overflow:visible;"/>
		</clipPath>
		<path class="st0" d="M407.5,1942.9c-0.1-0.5-0.4-1.1-0.6-1.6c-2.5-6-8-8.2-12.4-8.2c-5.9,0-12.4,4-13.3,12.2v1.7
			c0,0.1,0,0.7,0.1,1c0.5,3.9,3.6,8,5.9,11.9c2.5,4.2,5,8.3,7.6,12.4c1.6-2.7,3.1-5.4,4.7-8c0.4-0.8,0.9-1.5,1.3-2.3
			c0.3-0.5,0.8-1,1.1-1.4c2.5-4.5,6.5-9.1,6.5-13.6v-1.8C408.1,1944.7,407.5,1943,407.5,1942.9 M394.6,1951.3
			c-1.7,0-3.6-0.9-4.6-3.3c-0.1-0.4-0.1-1.1-0.1-1.2v-1.1c0-3.1,2.6-4.5,4.9-4.5c2.8,0,4.9,2.2,4.9,5
			C399.7,1949,397.3,1951.3,394.6,1951.3"/>
	</g>
	<g>
		<defs>
			<rect id="SVGID_3_" x="-385" y="-1143" width="1366" height="3139"/>
		</defs>
		<clipPath id="SVGID_4_">
			<use xlink:href="#SVGID_3_"  style="overflow:visible;"/>
		</clipPath>
		<path class="st1" d="M407.5,1942.9c-0.1-0.5-0.4-1.1-0.6-1.6c-2.5-6-8-8.2-12.4-8.2c-5.9,0-12.4,4-13.3,12.2v1.7
			c0,0.1,0,0.7,0.1,1c0.5,3.9,3.6,8,5.9,11.9c2.5,4.2,5,8.3,7.6,12.4c1.6-2.7,3.1-5.4,4.7-8c0.4-0.8,0.9-1.5,1.3-2.3
			c0.3-0.5,0.8-1,1.1-1.4c2.5-4.5,6.5-9.1,6.5-13.6v-1.8C408.1,1944.7,407.5,1943,407.5,1942.9z M394.6,1951.3
			c-1.7,0-3.6-0.9-4.6-3.3c-0.1-0.4-0.1-1.1-0.1-1.2v-1.1c0-3.1,2.6-4.5,4.9-4.5c2.8,0,4.9,2.2,4.9,5
			C399.7,1949,397.3,1951.3,394.6,1951.3z"/>
	</g>
</g>
<path d="M493,153.9c-2.2-8.1-6.6-16.7-9.8-24.2C444.5,36.5,359.8,3.1,291.4,3.1C199.8,3.1,99,64.5,85.6,191v25.9
	c0,1.1,0.3,10.8,0.9,15.6c7.6,60.3,55.1,124.4,90.7,184.7c38.2,64.6,77.9,128.2,117.2,191.7c24.2-41.5,48.4-83.5,72.1-123.8
	c6.5-11.9,14-23.7,20.4-35c4.3-7.5,12.5-15.1,16.3-22.1c38.2-70,99.8-140.5,99.8-210v-28.5C502.9,181.9,493.5,155.5,493,153.9
	 M293.1,283.7c-26.9,0-56.4-13.4-70.9-50.6c-2.2-5.9-2-17.8-2-18.9v-16.7c0-47.4,40.2-68.9,75.2-68.9c43.1,0,76.4,34.5,76.4,77.6
	C371.8,249.2,336.2,283.7,293.1,283.7"/>
</svg>
