<?xml version="1.0" encoding="utf-8"?>
<!-- Generator: Adobe Illustrator 21.0.0, SVG Export Plug-In . SVG Version: 6.00 Build 0)  -->
<svg version="1.1" id="Слой_1" xmlns="http://www.w3.org/2000/svg" xmlns:xlink="http://www.w3.org/1999/xlink" x="0px" y="0px"
	 viewBox="0 0 595.3 612" style="enable-background:new 0 0 595.3 612;" xml:space="preserve">
<g>
	<path d="M594.9,498.8c-1.9-14.3-10.2-26.6-22.7-33.8l-146.9-84.6c-18-10.4-40.8-7.3-55.5,7.3L341,416.7c-7.7,7.7-19.9,8.4-28.3,1.6
		c-22.8-18.3-45.3-38.5-66.7-60c-21.5-21.5-41.7-43.9-60-66.7c-6.8-8.4-6.1-20.6,1.6-28.3l28.9-28.9c14.7-14.7,17.7-37.5,7.3-55.5
		L139.2,31.9c-7.2-12.5-19.5-20.8-33.8-22.7C91,7.4,77,12.1,66.8,22.3L23.2,65.9C-7.2,96.4-7.7,152,21.8,222.6
		c28.4,67.9,81.4,142.7,149.2,210.5c67.8,67.8,142.6,120.8,210.5,149.2c34.8,14.5,65.9,21.8,92.2,21.8c27.1,0,49.1-7.7,64.5-23.2
		l43.6-43.6C592,527.2,596.8,513.1,594.9,498.8L594.9,498.8z M415.7,397.1l146.9,84.6c7.3,4.2,12.1,11.3,13.2,19.7
		c0.9,7-0.9,13.8-5,19.4L375.6,409.3l7.9-7.9C392,392.9,405.3,391.1,415.7,397.1L415.7,397.1z M102.8,28.4
		c8.3,1.1,15.5,5.9,19.7,13.2L207,188.4c6,10.4,4.3,23.7-4.3,32.2l-7.3,7.3L83.5,33.4c4.6-3.4,10.1-5.2,15.8-5.2
		C100.4,28.2,101.6,28.2,102.8,28.4L102.8,28.4z M524.6,567.3c-24.2,24.2-73.6,23.2-135.6-2.8c-65.6-27.5-138.2-79-204.3-145.1
		C118.6,353.4,67,280.8,39.6,215.2c-25.9-62-26.9-111.4-2.8-135.6l32.4-32.4L181.3,242l-7.5,7.5c-14.7,14.7-16,37.9-3,54.1
		c18.8,23.3,39.4,46.3,61.4,68.3c22,22,44.9,42.6,68.3,61.4c16.1,13,39.4,11.7,54-3l6.9-6.9L556.9,535L524.6,567.3L524.6,567.3z"/>
</g>
</svg>
