<?xml version="1.0" encoding="utf-8"?>
<!-- Generator: Adobe Illustrator 21.0.0, SVG Export Plug-In . SVG Version: 6.00 Build 0)  -->
<svg version="1.1" id="Слой_1" xmlns="http://www.w3.org/2000/svg" xmlns:xlink="http://www.w3.org/1999/xlink" x="0px" y="0px"
	 viewBox="0 0 595.3 612" style="enable-background:new 0 0 595.3 612;" xml:space="preserve">
<style type="text/css">
	.st0{fill:none;stroke:#000000;stroke-width:23.3373;stroke-miterlimit:10;}
	.st1{stroke:#000000;stroke-width:2.1101;stroke-miterlimit:10;}
</style>
<path class="st0" d="M298,15.8c157.4,0,285,127.6,285,285c0,157.4-127.6,285-285,285c-157.4,0-285-127.6-285-285
	C13,143.4,140.6,15.8,298,15.8z"/>
<path class="st1" d="M287.2,425.8h22.3c0,0,6.8-0.7,10.2-4.5c3.2-3.4,3.1-9.8,3.1-9.8s-0.5-30,13.5-34.4c13.7-4.4,31.4,29,50.1,41.8
	c14.1,9.7,24.9,7.6,24.9,7.6l50-0.7c0,0,26.1-1.6,13.8-22.2c-1-1.7-7.2-15.2-37.2-43c-31.3-29.1-27.1-24.4,10.6-74.7
	c23-30.6,32.2-49.4,29.3-57.4c-2.7-7.6-19.6-5.6-19.6-5.6l-56.3,0.3c0,0-4.2-0.6-7.3,1.3c-3,1.8-5,6-5,6s-8.9,23.7-20.8,43.9
	c-25.1,42.5-35.1,44.8-39.2,42.2c-9.5-6.2-7.1-24.7-7.1-37.9c0-41.2,6.2-58.4-12.2-62.9c-6.1-1.5-10.6-2.5-26.3-2.6
	c-20.1-0.2-37.1,0.1-46.7,4.8c-6.4,3.1-11.3,10.1-8.3,10.5c3.7,0.5,12.1,2.3,16.6,8.3c5.8,7.8,5.6,25.5,5.6,25.5s3.3,48.5-7.7,54.6
	c-7.6,4.1-18-4.3-40.3-42.9c-11.4-19.8-20.1-41.6-20.1-41.6s-1.7-4.1-4.6-6.3c-3.6-2.7-8.6-3.5-8.6-3.5l-53.5,0.4c0,0-8,0.2-11,3.7
	c-2.6,3.1-0.2,9.5-0.2,9.5s41.9,97.9,89.3,147.3C237.9,428.8,287.2,425.8,287.2,425.8z"/>
</svg>
