<?xml version="1.0" encoding="utf-8"?>
<!-- Generator: Adobe Illustrator 16.0.0, SVG Export Plug-In . SVG Version: 6.00 Build 0)  -->
<!DOCTYPE svg PUBLIC "-//W3C//DTD SVG 1.1//EN" "http://www.w3.org/Graphics/SVG/1.1/DTD/svg11.dtd">
<svg version="1.1" id="Layer_1" xmlns="http://www.w3.org/2000/svg" xmlns:xlink="http://www.w3.org/1999/xlink" x="0px" y="0px"
	 width="595.281px" height="609px" viewBox="0 115.445 595.281 609" enable-background="new 0 115.445 595.281 609"
	 xml:space="preserve">
<g>
	<g>
		<path fill="#FFFFFF" d="M123.654,192.899c-27.068,0-49.088,22.021-49.088,49.089v89.478c0,5.147,4.171,9.321,9.321,9.321h79.536
			c5.148,0,9.321-4.173,9.321-9.321v-89.478C172.743,214.92,150.721,192.899,123.654,192.899z M123.654,211.54
			c13.539,0,25.037,8.886,28.983,21.127H94.672C98.618,220.426,110.115,211.54,123.654,211.54z M114.333,322.146H93.207v-70.838
			h21.127V322.146z M154.102,322.146h-21.126v-70.838h21.126V322.146z"/>
	</g>
</g>
<g>
	<g>
		<path fill="#FFFFFF" d="M103.77,391.74H54.06c-5.148,0-9.321,4.173-9.321,9.321v39.769c0,5.147,4.171,9.321,9.321,9.321h49.71
			c5.148,0,9.321-4.173,9.321-9.321v-39.769C113.09,395.913,108.919,391.74,103.77,391.74z M94.45,431.508H63.38v-21.126h31.068
			v21.126H94.45z"/>
	</g>
</g>
<g>
	<g>
		<path fill="#FFFFFF" d="M193.249,391.74h-49.71c-5.148,0-9.321,4.173-9.321,9.321v39.769c0,5.147,4.171,9.321,9.321,9.321h49.71
			c5.148,0,9.321-4.173,9.321-9.321v-39.769C202.57,395.913,198.397,391.74,193.249,391.74z M183.928,431.508h-31.068v-21.126
			h31.068V431.508z"/>
	</g>
</g>
<g>
	<g>
		<path fill="#FFFFFF" d="M103.77,501.102H54.06c-5.148,0-9.321,4.173-9.321,9.321v39.769c0,5.147,4.171,9.321,9.321,9.321h49.71
			c5.148,0,9.321-4.173,9.321-9.321v-39.769C113.09,505.276,108.919,501.102,103.77,501.102z M94.45,540.871H63.38v-21.126h31.068
			v21.126H94.45z"/>
	</g>
</g>
<g>
	<g>
		<path fill="#FFFFFF" d="M193.249,501.102h-49.71c-5.148,0-9.321,4.173-9.321,9.321v39.769c0,5.147,4.171,9.321,9.321,9.321h49.71
			c5.148,0,9.321-4.173,9.321-9.321v-39.769C202.57,505.276,198.396,501.102,193.249,501.102z M183.928,540.871h-31.068v-21.126
			h31.068V540.871z"/>
	</g>
</g>
<g>
	<g>
		<path fill="#FFFFFF" d="M580.99,291.076c5.146,0,9.32-4.172,9.32-9.32v-39.769c0-2.473-0.98-4.843-2.729-6.591L478.216,126.035
			c-3.641-3.641-9.541-3.641-13.182,0L358.402,232.667H236.877L130.246,126.035c-3.642-3.641-9.542-3.641-13.182,0L7.702,235.398
			c-1.749,1.747-2.73,4.116-2.73,6.59v218.725c0,5.147,4.171,9.321,9.321,9.321c5.148,0,9.321-4.173,9.321-9.321V245.847
			l100.042-100.042l100.042,100.042v454.096h-41.01v-22.025c22.624-4.368,39.769-24.31,39.769-48.19
			c0-27.066-22.021-49.089-49.088-49.089c-27.066,0-49.088,22.022-49.088,49.089c0,23.881,17.143,43.821,39.769,48.19v22.025H83.265
			v-22.025c22.625-4.368,39.769-24.31,39.769-48.19c0-27.066-22.022-49.089-49.089-49.089c-27.068,0-49.088,22.021-49.088,49.089
			c0,23.881,17.144,43.821,39.769,48.19v22.025H23.612v-189.52c0-5.147-4.171-9.321-9.321-9.321c-5.148,0-9.321,4.173-9.321,9.321
			v198.841c0,5.147,4.172,9.321,9.321,9.321h566.696c5.148,0,9.32-4.173,9.32-9.321V331.466c0-5.146-4.172-9.32-9.32-9.32
			s-9.32,4.173-9.32,9.32v368.478h-41.012v-22.025c22.625-4.368,39.77-24.31,39.77-48.19c0-27.066-22.021-49.089-49.088-49.089
			c-27.068,0-49.09,22.022-49.09,49.089c0,23.881,17.145,43.821,39.77,48.19v22.025h-80.779v-22.025
			c22.623-4.368,39.768-24.31,39.768-48.19c0-27.066-22.021-49.089-49.088-49.089s-49.088,22.022-49.088,49.089
			c0,23.881,17.143,43.821,39.768,48.19v22.025h-41.01V245.847l100.041-100.042l100.043,100.042v35.909
			C571.667,286.904,575.839,291.076,580.99,291.076z M43.496,629.728c0-16.79,13.658-30.447,30.448-30.447
			s30.448,13.657,30.448,30.447s-13.658,30.447-30.448,30.447S43.496,646.517,43.496,629.728z M142.917,629.728
			c0-16.789,13.658-30.447,30.447-30.447c16.79,0,30.448,13.657,30.448,30.447s-13.658,30.447-30.448,30.447
			C156.575,660.176,142.917,646.517,142.917,629.728z M352.943,699.943H242.337V251.308h110.605V699.943z M490.888,629.728
			c0-16.789,13.658-30.447,30.449-30.447c16.789,0,30.447,13.657,30.447,30.447s-13.658,30.447-30.447,30.447
			C504.546,660.176,490.888,646.517,490.888,629.728z M391.468,629.728c0-16.789,13.656-30.447,30.447-30.447
			c16.789,0,30.447,13.657,30.447,30.447s-13.658,30.447-30.447,30.447C405.125,660.176,391.468,646.517,391.468,629.728z"/>
	</g>
</g>
<g>
	<g>
		<path fill="#FFFFFF" d="M471.626,192.899c-27.066,0-49.09,22.021-49.09,49.089v89.478c0,5.147,4.172,9.321,9.322,9.321h79.535
			c5.148,0,9.322-4.173,9.322-9.321v-89.478C520.714,214.922,498.693,192.899,471.626,192.899z M471.626,211.54
			c13.539,0,25.035,8.886,28.982,21.127h-57.965C446.589,220.426,458.087,211.54,471.626,211.54z M462.304,322.146h-21.125v-70.838
			h21.125V322.146z M502.074,322.146h-21.127v-70.838h21.127V322.146z"/>
	</g>
</g>
<g>
	<g>
		<path fill="#FFFFFF" d="M451.742,391.74h-49.711c-5.146,0-9.32,4.173-9.32,9.321v39.769c0,5.147,4.172,9.321,9.32,9.321h49.711
			c5.148,0,9.322-4.173,9.322-9.321v-39.769C461.062,395.913,456.89,391.74,451.742,391.74z M442.421,431.508h-31.068v-21.126
			h31.068V431.508z"/>
	</g>
</g>
<g>
	<g>
		<path fill="#FFFFFF" d="M541.22,391.74h-49.711c-5.148,0-9.32,4.173-9.32,9.321v39.769c0,5.147,4.172,9.321,9.32,9.321h49.711
			c5.148,0,9.32-4.173,9.32-9.321v-39.769C550.541,395.913,546.369,391.74,541.22,391.74z M531.9,431.508h-31.068v-21.126H531.9
			V431.508z"/>
	</g>
</g>
<g>
	<g>
		<path fill="#FFFFFF" d="M451.742,501.102h-49.711c-5.146,0-9.32,4.173-9.32,9.321v39.769c0,5.147,4.172,9.321,9.32,9.321h49.711
			c5.148,0,9.322-4.173,9.322-9.321v-39.769C461.062,505.276,456.89,501.102,451.742,501.102z M442.421,540.871h-31.068v-21.126
			h31.068V540.871z"/>
	</g>
</g>
<g>
	<g>
		<path fill="#FFFFFF" d="M541.22,501.102h-49.711c-5.148,0-9.32,4.173-9.32,9.321v39.769c0,5.147,4.172,9.321,9.32,9.321h49.711
			c5.148,0,9.32-4.173,9.32-9.321v-39.769C550.541,505.276,546.369,501.102,541.22,501.102z M531.9,540.871h-31.068v-21.126H531.9
			V540.871z"/>
	</g>
</g>
<g>
	<g>
		<path fill="#FFFFFF" d="M322.496,282.378h-49.711c-5.148,0-9.321,4.173-9.321,9.32v39.769c0,5.147,4.171,9.321,9.321,9.321h49.711
			c5.148,0,9.32-4.173,9.32-9.321v-39.769C331.816,286.551,327.642,282.378,322.496,282.378z M313.175,322.146h-31.069v-21.127
			h31.069V322.146z"/>
	</g>
</g>
<g>
	<g>
		<path fill="#FFFFFF" d="M322.496,391.74h-49.711c-5.148,0-9.321,4.173-9.321,9.321v39.769c0,5.147,4.171,9.321,9.321,9.321h49.711
			c5.148,0,9.32-4.173,9.32-9.321v-39.769C331.816,395.913,327.642,391.74,322.496,391.74z M313.175,431.508h-31.069v-21.126h31.069
			V431.508z"/>
	</g>
</g>
<g>
	<g>
		<path fill="#FFFFFF" d="M322.496,501.102h-49.711c-5.148,0-9.321,4.173-9.321,9.321v39.769c0,5.147,4.171,9.321,9.321,9.321
			h49.711c5.148,0,9.32-4.173,9.32-9.321v-39.769C331.816,505.276,327.642,501.102,322.496,501.102z M313.175,540.871h-31.069
			v-21.126h31.069V540.871z"/>
	</g>
</g>
<g>
	<g>
		<path fill="#FFFFFF" d="M322.496,610.466h-49.711c-5.148,0-9.321,4.173-9.321,9.321v39.769c0,5.146,4.171,9.32,9.321,9.32h49.711
			c5.148,0,9.32-4.173,9.32-9.32v-39.769C331.816,614.638,327.642,610.466,322.496,610.466z M313.175,650.234h-31.069v-21.127
			h31.069V650.234z"/>
	</g>
</g>
</svg>
