<?xml version="1.0" encoding="utf-8"?>
<!-- Generator: Adobe Illustrator 16.0.0, SVG Export Plug-In . SVG Version: 6.00 Build 0)  -->
<!DOCTYPE svg PUBLIC "-//W3C//DTD SVG 1.1//EN" "http://www.w3.org/Graphics/SVG/1.1/DTD/svg11.dtd">
<svg version="1.1" id="Capa_1" xmlns="http://www.w3.org/2000/svg" xmlns:xlink="http://www.w3.org/1999/xlink" x="0px" y="0px"
	 width="595.281px" height="410px" viewBox="0 213.445 595.281 410" enable-background="new 0 213.445 595.281 410"
	 xml:space="preserve">
<g>
	<path fill="#FFFFFF" d="M143.04,522.634c-16.486,0-29.897,13.412-29.897,29.897c0,16.486,13.413,29.897,29.897,29.897
		s29.897-13.411,29.897-29.897C172.938,536.046,159.524,522.634,143.04,522.634z M143.04,560.677c-4.492,0-8.146-3.655-8.146-8.146
		c0-4.49,3.656-8.146,8.146-8.146s8.146,3.654,8.146,8.146S147.531,560.677,143.04,560.677z"/>
	<path fill="#FFFFFF" d="M452.24,522.634c-16.484,0-29.896,13.412-29.896,29.897c0,16.486,13.412,29.897,29.896,29.897
		s29.898-13.411,29.898-29.897C482.138,536.046,468.726,522.634,452.24,522.634z M452.24,560.677c-4.492,0-8.146-3.655-8.146-8.146
		c0-4.49,3.656-8.146,8.146-8.146c4.492,0,8.146,3.654,8.146,8.146S456.732,560.677,452.24,560.677z"/>
	<path fill="#FFFFFF" d="M581.476,500.069V398.022V286.884c0-34.614-28.162-62.776-62.777-62.776H111.326
		c-53.772,0-97.521,43.749-97.521,97.521v178.439C5.429,506.36,0,516.376,0,527.635v1.334c0,18.99,15.449,34.438,34.439,34.438
		h44.275c5.195,30.818,32.054,54.373,64.326,54.373s59.131-23.555,64.326-54.373h180.549c5.195,30.818,32.053,54.373,64.326,54.373
		s59.131-23.555,64.326-54.373h44.275c18.99,0,34.438-15.448,34.438-34.438v-1.334C595.281,516.376,589.851,506.36,581.476,500.069z
		 M559.724,387.147h-29.846c-1.527,0-2.77-1.241-2.77-2.77v-83.849c0-1.527,1.24-2.77,2.77-2.77h29.846V387.147z M21.751,528.969
		v-1.334c0-7.004,5.691-12.703,12.688-12.703H89.76c-5.535,7.82-9.392,16.9-11.048,26.725H34.439
		C27.442,541.657,21.751,535.966,21.751,528.969z M143.04,596.03c-23.985,0-43.499-19.515-43.499-43.5s19.514-43.499,43.499-43.499
		s43.499,19.514,43.499,43.499S167.025,596.03,143.04,596.03z M387.914,541.657H207.366c-5.194-30.819-32.053-54.377-64.326-54.377
		c-9.653,0-18.813,2.123-27.065,5.901H35.556V321.631c0-41.781,33.991-75.771,75.77-75.771h407.373
		c18.855,0,34.771,12.791,39.551,30.149h-28.373c-13.52,0-24.52,10.999-24.52,24.521v83.849c0,13.521,10.998,24.521,24.52,24.521
		h29.848v84.285h-80.418c-8.252-3.777-17.412-5.901-27.066-5.901C419.968,487.281,393.109,510.84,387.914,541.657z M452.24,596.03
		c-23.984,0-43.498-19.515-43.498-43.5s19.514-43.499,43.498-43.499c23.986,0,43.5,19.514,43.5,43.499S476.226,596.03,452.24,596.03
		z M573.529,528.969c0,6.996-5.691,12.688-12.688,12.688h-44.273c-1.656-9.824-5.514-18.904-11.049-26.725h55.322
		c6.996,0,12.688,5.699,12.688,12.703V528.969z"/>
	<path fill="#FFFFFF" d="M473.267,384.378v-83.849c0-13.521-10.998-24.521-24.52-24.521H113.891
		c-28.932,0-52.469,23.537-52.469,52.469v55.9c0,13.521,10.999,24.521,24.521,24.521h362.805
		C462.269,408.898,473.267,397.898,473.267,384.378z M278.221,297.76h85.498v89.388h-85.498V297.76z M256.47,387.147h-85.496V297.76
		h85.496V387.147z M83.173,384.378v-55.9c0-16.938,13.78-30.718,30.718-30.718h35.332v89.388H85.942
		C84.414,387.147,83.173,385.904,83.173,384.378z M451.517,384.378c0,1.526-1.242,2.77-2.77,2.77h-63.279V297.76h63.279
		c1.527,0,2.77,1.241,2.77,2.77V384.378z"/>
	<path fill="#FFFFFF" d="M535.853,476.269c6.006,0,10.875-4.869,10.875-10.875v-9.668c0-6.006-4.869-10.875-10.875-10.875
		c-6.008,0-10.877,4.869-10.877,10.875v9.668C524.976,471.4,529.845,476.269,535.853,476.269z"/>
</g>
</svg>
