<?xml version="1.0" encoding="utf-8"?>
<!-- Generator: Adobe Illustrator 16.0.0, SVG Export Plug-In . SVG Version: 6.00 Build 0)  -->
<!DOCTYPE svg PUBLIC "-//W3C//DTD SVG 1.1//EN" "http://www.w3.org/Graphics/SVG/1.1/DTD/svg11.dtd">
<svg version="1.1" id="Capa_1" xmlns="http://www.w3.org/2000/svg" xmlns:xlink="http://www.w3.org/1999/xlink" x="0px" y="0px"
	 width="595.281px" height="548px" viewBox="0 145.445 595.281 548" enable-background="new 0 145.445 595.281 548"
	 xml:space="preserve">
<g>
	<g>
		<path fill="#FFFFFF" d="M271.703,267.656c22.892,2.643,43.607-13.83,46.228-36.732l-83.002-9.485
			C232.318,244.351,248.78,265.045,271.703,267.656z"/>
		<path fill="#FFFFFF" d="M320.212,224.617l19.58,2.354l1.867-15.503l-23.563-6.109c-5.244-15.183-18.723-26.855-35.743-28.889
			c-23.759-2.849-45.32,14.099-48.168,37.847l62.515,7.483L320.212,224.617z"/>
		<path fill="#FFFFFF" d="M345.572,377.895c-38.363-11.219-61.318-38.063-77.274-72.505c-6.781-33.905-58.572-53.36-81.021-14.966
			c-14.8,25.317-28.951,51.027-42.605,76.975l75.406,44.422c8.597-16.328,17.463-32.501,26.484-48.602
			c20.704,28.702,48.014,50.521,86.048,61.658h0.02l22.076,252.991l16.029-1.394L348.72,424.094
			C366.255,416.063,369.505,384.893,345.572,377.895z"/>
		<path fill="#FFFFFF" d="M105.327,412.936l88.689-151.782c0,0-13.954-13.407-32.48-20.674
			c-4.087-17.381-16.689-31.458-33.151-37.651V167.19l5.894-1.651c-15.719-19.651-49.139,13.758-49.139,13.758l27.516-7.71v27.939
			c-0.98-0.052-1.951-0.154-2.941-0.154c-29.395,0-53.298,23.903-53.298,53.298c0,1.642,0.104,3.251,0.248,4.861
			c-0.155,1.6-0.248,3.22-0.248,4.851c0,0.526,0.062,1.043,0.083,1.569c-0.021,0.526-0.083,1.042-0.083,1.568
			c0,3.014,0.31,5.955,0.795,8.835c-0.485,2.88-0.795,5.821-0.795,8.835c0,12.055,4.077,23.16,10.848,32.099
			c-16.194,27.96-33.471,57.768-39.85,69.048C11.962,411.697,89.907,440.205,105.327,412.936z M128.374,206.999
			c13.108,5.377,23.398,16.245,28.011,29.725c-6.11-11.054-16.07-19.62-28.011-24.12V206.999z M128.374,219.88
			c8.701,3.581,16.132,9.578,21.509,17.153c-4.965-1.011-10.115-1.362-15.286-0.794c-2.002-1.074-4.077-1.992-6.224-2.798V219.88z
			 M76.707,299.001c-6.151-5.563-10.92-12.643-13.675-20.652c3.818,6.905,9.186,12.809,15.543,17.422
			C77.956,296.844,77.326,297.918,76.707,299.001z M112.655,245.228c-5.037,3.922-9.888,9.248-14.408,16.328
			c-3.406,6.038-9.939,17.381-17.752,30.891c-8.205-6.059-14.48-14.604-17.711-24.502c6.451-19.775,25.039-34.111,46.93-34.111
			c0.991,0,1.971,0.062,2.941,0.124V245.228z M109.713,203.303c0.991,0,1.971,0.063,2.941,0.114v5.883
			c-0.98-0.052-1.94-0.206-2.941-0.206c-20.075,0-37.6,11.178-46.672,27.619C69.688,217.32,88.07,203.303,109.713,203.303z
			 M109.713,216.154c0.991,0,1.961,0.082,2.941,0.145v13.83c-0.98-0.052-1.94-0.217-2.941-0.217
			c-21.602,0-40.201,12.933-48.561,31.459c-0.134-0.754-0.248-1.507-0.34-2.261C63.97,234.918,84.664,216.154,109.713,216.154z
			 M60.471,285.873c2.962,7.143,7.442,13.5,13.025,18.682c-1.342,2.312-2.704,4.665-4.077,7.038
			C64.228,304.234,60.987,295.41,60.471,285.873z"/>
		<path fill="#FFFFFF" d="M284.367,661.675c0,0-6.017-1.796-13.634-5.542l-4.221,7.762l-4.428-2.261l4.263-7.823
			c-1.321-0.712-2.653-1.507-3.984-2.343l-3.83,7.039l-4.417-2.24l4.107-7.565c-1.197-0.867-2.384-1.796-3.55-2.756l-3.447,6.368
			l-4.438-2.271l1.259-2.302c4.025-2.879,7.163-7.276,8.37-13.552c1.424-7.514,2.457-12.829,3.158-16.555
			c1.094-5.749,1.466-7.638,1.466-7.638c0.712-3.716,1.724-9.052,3.158-16.555h-0.031c5.955-23.553,11.9-47.096,17.866-70.669
			c0.671-2.663,0.908-5.14,0.836-7.482c1.806-6.234,0.795-13.325-4.696-20.22c-19.744-24.812-42.275-46.342-68.067-64.146
			c1.724-3.323,3.468-6.667,5.212-10.001l-75.396-44.433c-2.054,3.942-4.128,7.875-6.162,11.828
			c-1.868,3.633-3.148,7.235-4.015,10.775c-7.658,17.112-38.56,84.065-82.435,151.493l-1.517-0.98
			c-3.127,4.81-19.249,30.169-22.655,35.216c-0.227,0.371-0.351,0.743-0.568,1.114l-1.135,1.786l-18.021,25.73l0.072,0.021
			c-0.042,0.052-0.155,0.124-0.155,0.124L0,619.059c0,0,0.372,1.032,1.228,1.548l27.361,17.144l35.339,22.128l14.718,9.228
			c0.856,0.558,1.734,0.723,1.94,0.413l2.993-4.81c0.041-0.052,0.021-0.135,0.01-0.217l0.083,0.082c0,0,7.534-8.546,0.34-15.698
			c0,0-4.944-3.87-10.662-10.125l-6.771,5.687l-3.303-3.705l6.822-5.718c-0.96-1.156-1.91-2.363-2.838-3.644l-6.141,5.141
			l-3.292-3.706l6.595-5.532c-0.805-1.238-1.579-2.538-2.312-3.859l-5.532,4.675l-3.313-3.715l2.013-1.693
			c4.799-1.197,9.32-4.139,12.736-9.567c4.077-6.461,6.967-11.054,8.99-14.274c3.117-4.943,4.159-6.595,4.149-6.574
			c0.072-0.124,0.165-0.258,0.237-0.382l0.114,0.104c0,0,0.34-0.65,0.929-1.755c1.92-3.045,4.407-7.019,7.7-12.251l-0.888-0.567
			c13.459-25.246,42.162-78.771,67.19-123.214c2.157,3.685,5.408,7.019,9.918,9.599c24.43,13.893,45.826,32.48,63.97,53.876
			c-5.542,21.922-11.074,43.834-16.606,65.746l-1.167-0.217c-1.176,5.625-6.936,35.081-8.257,41.057
			c-0.083,0.434-0.051,0.815-0.113,1.239l-0.423,2.074l-7.39,30.52h0.083c-0.031,0.062-0.114,0.165-0.114,0.165l-1.104,6.307
			c0,0,0.723,0.825,1.724,1.011l31.727,5.986l40.975,7.7l17.061,3.21c1.001,0.186,1.889,0.041,1.961-0.32l1.042-5.563
			c0.021-0.072-0.031-0.134-0.062-0.206l0.093,0.031C289.765,676.403,293.667,665.7,284.367,661.675z"/>
		<polygon fill="#FFFFFF" points="317.941,353.434 595.281,353.434 535.841,204.543 456.605,345.075 398.632,271.846 
			335.25,333.484 		"/>
	</g>
</g>
</svg>
