<?xml version="1.0" encoding="utf-8"?>
<!-- Generator: Adobe Illustrator 16.0.0, SVG Export Plug-In . SVG Version: 6.00 Build 0)  -->
<!DOCTYPE svg PUBLIC "-//W3C//DTD SVG 1.1//EN" "http://www.w3.org/Graphics/SVG/1.1/DTD/svg11.dtd">
<svg version="1.1" id="Layer_1" xmlns="http://www.w3.org/2000/svg" xmlns:xlink="http://www.w3.org/1999/xlink" x="0px" y="0px"
	 width="595.281px" height="582px" viewBox="0 127.445 595.281 582" enable-background="new 0 127.445 595.281 582"
	 xml:space="preserve">
<g>
	<g>
		<path fill="#FFFFFF" d="M364.335,248.166c-11.527-12.964-29.506-20.398-49.322-20.398c-35.393,0-67.028,24.164-70.525,53.9
			c-1.568,13.601,2.652,26.796,11.883,37.152c11.343,12.727,29.159,20.024,48.888,20.024c36.309,0,67.48-23.677,70.963-53.869
			C377.792,271.624,373.572,258.552,364.335,248.166z M347.837,281.667c-1.785,15.504-21.287,28.602-42.582,28.602
			c-11.414,0-21.715-3.91-27.553-10.462c-3.845-4.313-5.468-9.314-4.832-14.833c1.794-15.252,21.486-28.632,42.141-28.632
			c11.494,0,21.951,4.043,27.973,10.812C345.626,270.126,348.617,275.052,347.837,281.667z"/>
	</g>
</g>
<g>
	<g>
		<path fill="#FFFFFF" d="M350.833,552.886c-3.572-2.396-11.932-8.003-5.184-46.929c0.174-0.849,0.852-3.986,1.904-8.862
			c2.396-11.111,6.855-31.792,11.703-54.854c0.012-0.051,0.023-0.104,0.031-0.155c4.949-24.924,1.031-46.728-11.32-63.055
			c-11.15-14.74-28.805-23.776-49.707-25.441c-30.911-2.473-63.247,15.974-73.153,34.132c-4.58,8.046-2.387,14.58-0.66,17.776
			c2.139,3.953,5.26,6.169,7.54,7.786c3.513,2.493,11.735,8.328,3.926,47.173c-0.73,3.553-11.625,58.947-13.066,66.812
			c-0.01,0.053-0.019,0.106-0.029,0.158c-4.292,25.044-0.048,46.931,12.966,62.735c20.956,25.451,52.852,24.229,54.101,24.229
			c29.729-0.001,59.444-18.465,68.493-36.134c4.367-8.163,2.008-14.637,0.193-17.786
			C356.333,556.577,353.154,554.443,350.833,552.886z M331.271,436.45c-4.824,22.953-9.266,43.55-11.654,54.62
			c-1.623,7.527-1.951,9.056-2.068,9.683c-0.008,0.05-0.018,0.102-0.025,0.153c-7.256,41.697,0.086,59.946,10.479,70.156
			c-2.84,2.533-6.729,5.269-11.543,7.752c-9.469,4.886-19.957,7.412-28.79,6.946c-12.867-0.688-23.088-5.33-29.552-13.428
			c-7.528-9.427-9.999-23.257-7.146-39.994c1.553-8.463,12.463-63.871,12.922-66.076c0.008-0.049,0.019-0.095,0.029-0.144
			c8.346-41.493,1.481-59.929-8.639-70.406c2.904-2.458,6.866-5.092,11.743-7.447c9.593-4.633,20.151-6.887,28.963-6.188
			c12.845,1.023,22.938,5.932,29.188,14.196C332.458,405.895,334.566,419.788,331.271,436.45z"/>
	</g>
</g>
<g>
	<g>
		<path fill="#FFFFFF" d="M534.373,582.509c39.334-47.201,60.908-105.509,60.908-165.056c0-72.985-31.133-141.526-87.66-192.998
			c-56.154-51.13-130.727-79.29-209.979-79.29c-79.252,0-153.826,28.16-209.981,79.291C31.131,275.926,0,344.469,0,417.454
			c0,72.986,31.131,141.529,87.66,192.999c56.155,51.131,130.727,79.289,209.979,79.289c49.559,0,98.4-11.313,141.691-32.771
			l103.732,38.847c1.631,0.61,3.324,0.907,5.008,0.907c3.533,0,7.008-1.311,9.695-3.789c3.963-3.659,5.527-9.239,4.045-14.426
			L534.373,582.509z M443.466,628.007c-3.801-1.425-8.027-1.163-11.629,0.716c-40.623,21.226-87.027,32.445-134.198,32.445
			c-148.362,0-269.064-109.328-269.064-243.712c0-134.385,120.701-243.716,269.063-243.716s269.064,109.329,269.064,243.712
			c0,55.918-20.363,108.522-58.891,152.129c-3.227,3.651-4.369,8.7-3.029,13.386l21.766,76.151L443.466,628.007z"/>
	</g>
</g>
</svg>
