<?xml version="1.0" encoding="utf-8"?>
<!-- Generator: Adobe Illustrator 16.0.0, SVG Export Plug-In . SVG Version: 6.00 Build 0)  -->
<!DOCTYPE svg PUBLIC "-//W3C//DTD SVG 1.1//EN" "http://www.w3.org/Graphics/SVG/1.1/DTD/svg11.dtd">
<svg version="1.1" id="Layer_1" xmlns="http://www.w3.org/2000/svg" xmlns:xlink="http://www.w3.org/1999/xlink" x="0px" y="0px"
	 width="509.975px" height="610.469px" viewBox="40.744 116.052 509.975 610.469"
	 enable-background="new 40.744 116.052 509.975 610.469" xml:space="preserve">
<g>
	<g>
		<path fill="#FFFFFF" d="M373.568,360.202v-34.016h-30.111c-2.945-13.229-12.152-24.12-24.346-29.385l98.174-118.478
			c3.301,1.336,6.902,2.079,10.676,2.079c15.742,0,28.549-12.807,28.549-28.549s-12.807-28.549-28.549-28.549
			s-28.549,12.807-28.549,28.549c0,5.336,1.475,10.333,4.033,14.611l-105.168,126.92h-17.645c-0.588,0-1.171,0.021-1.754,0.045
			l-105.21-126.97c2.557-4.276,4.032-9.272,4.032-14.606c0-15.742-12.807-28.549-28.549-28.549
			c-15.743,0-28.549,12.807-28.549,28.549s12.807,28.549,28.549,28.549c3.774,0,7.378-0.742,10.68-2.08l99.96,120.634
			c-10.043,5.782-17.474,15.601-20.064,27.229h-30.165v34.016H51.631v321.938h30.371v36.447h431.275v-36.446h30.371V360.202H373.568
			z M427.96,141.527c5.693,0,10.326,4.632,10.326,10.327c0,5.694-4.633,10.326-10.326,10.326s-10.326-4.632-10.326-10.326
			C417.634,146.159,422.267,141.527,427.96,141.527z M149.15,162.18c-5.692,0-10.327-4.632-10.327-10.326
			c0-5.695,4.632-10.327,10.327-10.327c5.693,0,10.327,4.632,10.327,10.327C159.477,157.549,154.845,162.18,149.15,162.18z
			 M280.632,311.608h21.922c9.834,0,18.285,6.026,21.861,14.578H258.77C262.348,317.635,270.798,311.608,280.632,311.608z
			 M227.785,344.409h127.56v15.793h-127.56V344.409z M495.054,700.363H100.226V682.14h394.829V700.363L495.054,700.363z
			 M525.425,663.918H69.855V378.426h455.572v285.492H525.425z"/>
	</g>
</g>
<g>
	<g>
		<path fill="#FFFFFF" d="M376.605,396.648H121.486c-18.421,0-33.409,14.987-33.409,33.409v182.229
			c0,18.421,14.988,33.409,33.409,33.409h255.121c18.42,0,33.408-14.988,33.408-33.409V430.057
			C410.015,411.635,395.027,396.648,376.605,396.648z M391.792,612.285c0,8.375-6.813,15.186-15.186,15.186H121.486
			c-8.374,0-15.185-6.813-15.185-15.186V430.057c0-8.374,6.812-15.186,15.185-15.186h255.121c8.373,0,15.186,6.812,15.186,15.186
			V612.285z"/>
	</g>
</g>
<g>
	<g>
		<path fill="#FFFFFF" d="M481.707,478.937c-7.449,4.88-16.711,5.547-24.768,1.788c-8.059-3.756-13.496-11.278-14.551-20.123
			l-18.096,2.154c1.805,15.152,11.127,28.042,24.943,34.483c5.93,2.765,12.234,4.133,18.514,4.133c8.35,0,16.648-2.419,23.938-7.191
			L481.707,478.937z"/>
	</g>
</g>
<g>
	<g>
		<path fill="#FFFFFF" d="M510.343,467.427c1.133-4.899,1.412-9.963,0.803-14.973c-1.801-15.153-11.125-28.045-24.941-34.487
			c-13.814-6.444-29.686-5.302-42.436,3.047c-4.24,2.763-7.943,6.236-10.969,10.253l-10.775-5.025l-7.703,16.515l99.094,46.209
			l7.703-16.514L510.343,467.427z M493.162,459.416l-43.182-20.137c1.15-1.111,2.4-2.125,3.752-3.005
			c7.453-4.878,16.715-5.546,24.77-1.79c8.059,3.757,13.498,11.279,14.553,20.146C493.248,456.221,493.273,457.824,493.162,459.416z
			"/>
	</g>
</g>
<g>
	<g>
		<rect x="440.386" y="530.283" fill="#FFFFFF" width="18.223" height="18.222"/>
	</g>
</g>
<g>
	<g>
		<rect x="440.386" y="565.708" fill="#FFFFFF" width="18.223" height="18.223"/>
	</g>
</g>
<g>
	<g>
		<rect x="440.386" y="601.145" fill="#FFFFFF" width="18.223" height="18.223"/>
	</g>
</g>
<g>
	<g>
		<rect x="476.832" y="530.283" fill="#FFFFFF" width="18.223" height="18.222"/>
	</g>
</g>
<g>
	<g>
		<rect x="476.832" y="565.708" fill="#FFFFFF" width="18.223" height="18.223"/>
	</g>
</g>
<g>
	<g>
		<rect x="476.832" y="601.145" fill="#FFFFFF" width="18.223" height="18.223"/>
	</g>
</g>
</svg>
