<?xml version="1.0" encoding="utf-8"?>
<!-- Generator: Adobe Illustrator 16.0.0, SVG Export Plug-In . SVG Version: 6.00 Build 0)  -->
<!DOCTYPE svg PUBLIC "-//W3C//DTD SVG 1.1//EN" "http://www.w3.org/Graphics/SVG/1.1/DTD/svg11.dtd">
<svg version="1.1" id="Layer_1" xmlns="http://www.w3.org/2000/svg" xmlns:xlink="http://www.w3.org/1999/xlink" x="0px" y="0px"
	 width="552px" height="620px" viewBox="22.14 109.445 552 620" enable-background="new 22.14 109.445 552 620"
	 xml:space="preserve">
<path fill="#F5F5F5" d="M560.908,468.319l-0.016-94.746l-0.006-31.583l-0.01-49.396c-0.002-13.495-6.645-26.03-17.604-33.654
	c-0.943-0.657-1.908-1.29-2.916-1.873l-27.568-15.909l-25.809-14.895l-20.777-11.99l-110.451-63.743l-23.246-13.416l-14.406-8.314
	c-12.693-7.327-28.333-7.325-41.026,0.007l-14.309,8.265l-23.245,13.426l-110.436,63.787l-34.818,20.109l-25.8,14.902l-13.6,7.855
	c-0.978,0.564-1.916,1.18-2.836,1.814c-11.004,7.623-17.673,20.189-17.672,33.719l0.008,49.308l0.006,31.583l0.016,94.746
	l0.006,31.582l0.008,49.396c0.003,13.495,6.645,26.031,17.603,33.654c0.944,0.657,1.909,1.291,2.917,1.873L82.1,600.51
	l25.809,14.895l21.165,12.215l110.451,63.744l23.247,13.416l14.405,8.314c12.694,7.327,28.334,7.322,41.027-0.007l14.309-8.265
	l23.246-13.427l110.441-63.786l31.77-18.35l25.799-14.902l16.648-9.615c0.979-0.565,1.916-1.178,2.836-1.816
	c11.004-7.622,17.674-20.189,17.672-33.718l-0.008-49.309L560.908,468.319z"/>
<g>
	<polygon fill="#41479B" points="355.755,691.395 466.195,627.609 355.755,529.308 	"/>
	<polygon fill="#41479B" points="466.207,214.272 355.755,150.529 355.755,312.583 	"/>
	<polygon fill="#41479B" points="129.072,627.618 239.522,691.362 239.522,529.308 	"/>
	<path fill="#41479B" d="M543.25,582.926c11.006-7.622,17.674-20.189,17.674-33.719l-0.01-49.308H449.972L543.25,582.926z"/>
	<path fill="#41479B" d="M34.392,499.901l0.008,49.396c0.003,13.495,6.645,26.031,17.603,33.654l93.306-83.051L34.392,499.901
		L34.392,499.901z"/>
	<path fill="#41479B" d="M52.03,258.964c-11.005,7.622-17.674,20.189-17.672,33.719l0.008,49.308h110.942L52.03,258.964z"/>
	<path fill="#41479B" d="M560.886,341.99l-0.01-49.396c0-13.495-6.645-26.03-17.602-33.654l-93.307,83.051H560.886z"/>
	<polygon fill="#41479B" points="239.522,150.496 129.083,214.283 239.522,312.583 	"/>
</g>
<g>
	<path fill="#FF4B55" d="M332.509,137.111l-14.406-8.313c-12.693-7.327-28.334-7.325-41.027,0.007l-14.309,8.265v236.503H34.371
		l0.016,94.746h228.382v236.46l14.405,8.314c12.694,7.326,28.333,7.322,41.027-0.008l14.309-8.264V468.319h228.398l-0.016-94.746
		H332.509V137.111z"/>
	<polygon fill="#FF4B55" points="196.185,499.901 82.098,600.51 107.906,615.404 238.883,499.901 	"/>
	<polygon fill="#FF4B55" points="373.957,499.901 497.964,609.26 523.767,594.358 416.654,499.901 	"/>
	<polygon fill="#FF4B55" points="216.275,341.99 94.265,234.392 68.463,249.295 173.577,341.99 	"/>
	<polygon fill="#FF4B55" points="355.755,341.99 398.455,341.99 512.792,241.159 486.984,226.262 	"/>
</g>
</svg>
