<?xml version="1.0" encoding="utf-8"?>
<!-- Generator: Adobe Illustrator 16.0.0, SVG Export Plug-In . SVG Version: 6.00 Build 0)  -->
<!DOCTYPE svg PUBLIC "-//W3C//DTD SVG 1.1//EN" "http://www.w3.org/Graphics/SVG/1.1/DTD/svg11.dtd">
<svg version="1.1" id="Layer_1" xmlns="http://www.w3.org/2000/svg" xmlns:xlink="http://www.w3.org/1999/xlink" x="0px" y="0px"
	 width="552px" height="620px" viewBox="18.14 107.445 552 620" enable-background="new 18.14 107.445 552 620"
	 xml:space="preserve">
<path fill="#F5F5F5" d="M560.917,520.713l-0.033-199.534l-0.004-28.584c-0.004-14.657-7.824-28.2-20.52-35.527L318.105,128.799
	c-12.693-7.327-28.333-7.325-41.026,0.007L54.866,257.147c-12.693,7.331-20.509,20.876-20.508,35.533l0.004,28.497l0.034,199.534
	l0.005,28.584c0.002,14.656,7.823,28.199,20.519,35.526l222.254,128.27c12.694,7.327,28.333,7.322,41.027-0.007L540.414,584.74
	c12.693-7.33,20.51-20.875,20.508-35.534L560.917,520.713z"/>
<polygon fill="#41479B" points="560.886,321.178 34.363,321.178 34.397,520.713 296.188,551.708 560.917,520.713 "/>
<path fill="#FF4B55" d="M560.917,520.713H34.397l0.005,28.584c0.003,14.658,7.824,28.2,20.52,35.527l222.255,128.271
	c12.694,7.327,28.333,7.322,41.026-0.007l222.213-128.345c12.693-7.331,20.51-20.876,20.508-35.534L560.917,520.713z"/>
</svg>
