<?xml version="1.0" encoding="utf-8"?>
<!-- Generator: Adobe Illustrator 16.0.0, SVG Export Plug-In . SVG Version: 6.00 Build 0)  -->
<!DOCTYPE svg PUBLIC "-//W3C//DTD SVG 1.1//EN" "http://www.w3.org/Graphics/SVG/1.1/DTD/svg11.dtd">
<svg version="1.1" id="Layer_1" xmlns="http://www.w3.org/2000/svg" xmlns:xlink="http://www.w3.org/1999/xlink" x="0px" y="0px"
	 width="548px" height="622px" viewBox="24.14 109.445 548 622" enable-background="new 24.14 109.445 548 622"
	 xml:space="preserve">
<path fill="#FFE15A" d="M560.902,420.945l-0.021-128.352c-0.004-14.658-7.824-28.201-20.521-35.528L318.105,128.799
	c-12.695-7.327-28.335-7.325-41.025,0.007L54.865,257.148c-12.693,7.332-20.509,20.876-20.508,35.533l0.022,128.263l0.022,128.352
	c0.003,14.658,7.824,28.201,20.52,35.528l222.256,128.271c12.695,7.327,28.333,7.323,41.026-0.007l222.215-128.345
	c12.691-7.331,20.508-20.875,20.508-35.534L560.902,420.945z"/>
<path fill="#4173CD" d="M560.88,292.595c-0.004-14.657-7.824-28.2-20.521-35.527l-222.254-128.27
	c-12.695-7.327-28.335-7.325-41.025,0.007L54.865,257.148c-12.693,7.332-20.509,20.876-20.508,35.533l0.022,128.263h526.523
	L560.88,292.595z"/>
</svg>
