<?xml version="1.0" encoding="utf-8"?>
<!-- Generator: Adobe Illustrator 16.0.0, SVG Export Plug-In . SVG Version: 6.00 Build 0)  -->
<!DOCTYPE svg PUBLIC "-//W3C//DTD SVG 1.1//EN" "http://www.w3.org/Graphics/SVG/1.1/DTD/svg11.dtd">
<svg version="1.1" id="Слой_1" xmlns="http://www.w3.org/2000/svg" xmlns:xlink="http://www.w3.org/1999/xlink" x="0px" y="0px"
	 width="595.281px" height="612px" viewBox="0 114.445 595.281 612" enable-background="new 0 114.445 595.281 612"
	 xml:space="preserve">
<path fill="#FFFFFF" d="M590.253,423.775c0-161.875-131.219-293.105-293.104-293.105c-161.867,0-293.098,131.231-293.098,293.105
	c0,161.872,131.231,293.091,293.098,293.091C459.035,716.866,590.253,585.647,590.253,423.775 M30.691,423.775
	c0-147.175,119.303-266.465,266.458-266.465C444.297,157.31,563.6,276.6,563.6,423.775c0,147.16-119.303,266.451-266.451,266.451
	C149.994,690.226,30.691,570.935,30.691,423.775"/>
<path fill="#FFFFFF" d="M308.391,592.939V423.775h55.817l8.833-56.065h-64.65v-28.116c0-14.621,4.791-28.583,25.797-28.583h41.961
	v-55.96h-59.574c-50.088,0-63.763,32.985-63.763,78.714v33.919h-34.372v56.091h34.372v169.164H308.391z"/>
</svg>
