<?xml version="1.0" encoding="utf-8"?>
<!-- Generator: Adobe Illustrator 16.0.0, SVG Export Plug-In . SVG Version: 6.00 Build 0)  -->
<!DOCTYPE svg PUBLIC "-//W3C//DTD SVG 1.1//EN" "http://www.w3.org/Graphics/SVG/1.1/DTD/svg11.dtd">
<svg version="1.1" id="Слой_1" xmlns="http://www.w3.org/2000/svg" xmlns:xlink="http://www.w3.org/1999/xlink" x="0px" y="0px"
	 width="595.281px" height="612px" viewBox="0 114.445 595.281 612" enable-background="new 0 114.445 595.281 612"
	 xml:space="preserve">
<g>
	<defs>
		<rect id="SVGID_1_" x="-385" y="-1028.555" width="1366" height="3139"/>
	</defs>
	<clipPath id="SVGID_2_">
		<use xlink:href="#SVGID_1_"  overflow="visible"/>
	</clipPath>
	<path clip-path="url(#SVGID_2_)" fill="#FFFFFF" d="M407.49,2057.304c-0.141-0.522-0.424-1.08-0.633-1.567
		c-2.506-6.023-7.984-8.183-12.404-8.183c-5.92,0-12.439,3.97-13.311,12.151v1.672c0,0.07,0.023,0.696,0.059,1.01
		c0.488,3.899,3.564,8.044,5.863,11.942c2.471,4.179,5.037,8.288,7.578,12.396c1.566-2.681,3.129-5.396,4.66-8.008
		c0.418-0.767,0.902-1.532,1.32-2.264c0.277-0.487,0.811-0.975,1.053-1.428c2.473-4.525,6.451-9.087,6.451-13.579v-1.845
		C408.126,2059.115,407.523,2057.409,407.49,2057.304 M394.56,2065.695c-1.74,0-3.645-0.869-4.584-3.272
		c-0.141-0.383-0.129-1.149-0.129-1.22v-1.079c0-3.063,2.602-4.456,4.863-4.456c2.785,0,4.941,2.229,4.941,5.015
		C399.652,2063.468,397.347,2065.695,394.56,2065.695"/>
	<path clip-path="url(#SVGID_2_)" fill="none" stroke="#666666" stroke-width="1.5" stroke-miterlimit="10" d="M407.49,2057.304
		c-0.141-0.522-0.424-1.08-0.633-1.567c-2.506-6.023-7.984-8.183-12.404-8.183c-5.92,0-12.439,3.97-13.311,12.151v1.672
		c0,0.07,0.023,0.696,0.059,1.01c0.488,3.899,3.564,8.044,5.863,11.942c2.471,4.179,5.037,8.288,7.578,12.396
		c1.566-2.681,3.129-5.396,4.66-8.008c0.418-0.767,0.902-1.532,1.32-2.264c0.277-0.487,0.811-0.975,1.053-1.428
		c2.473-4.525,6.451-9.087,6.451-13.579v-1.845C408.126,2059.115,407.523,2057.409,407.49,2057.304z M394.56,2065.695
		c-1.74,0-3.645-0.869-4.584-3.272c-0.141-0.383-0.129-1.149-0.129-1.22v-1.079c0-3.063,2.602-4.456,4.863-4.456
		c2.785,0,4.941,2.229,4.941,5.015C399.652,2063.468,397.347,2065.695,394.56,2065.695z"/>
</g>
<path fill="#FFFFFF" d="M493.029,268.334c-2.174-8.081-6.556-16.705-9.786-24.241c-38.756-93.156-123.484-126.549-191.85-126.549
	c-91.555,0-192.384,61.394-205.84,187.929v25.857c0,1.086,0.347,10.769,0.89,15.616c7.552,60.308,55.143,124.405,90.68,184.697
	c38.226,64.626,77.902,128.181,117.216,191.704c24.218-41.458,48.383-83.459,72.064-123.846c6.465-11.856,13.955-23.697,20.42-35.01
	c4.289-7.535,12.535-15.073,16.281-22.08c38.24-69.988,99.771-140.536,99.771-210.009v-28.53
	C502.876,296.335,493.542,269.949,493.029,268.334 M293.07,398.1c-26.913,0-56.38-13.441-70.909-50.611
	c-2.16-5.92-1.993-17.776-1.993-18.864v-16.688c0-47.379,40.234-68.917,75.229-68.917c43.066,0,76.414,34.465,76.414,77.555
	C371.81,363.65,336.167,398.1,293.07,398.1"/>
</svg>
