<?xml version="1.0" encoding="utf-8"?>
<!-- Generator: Adobe Illustrator 16.0.0, SVG Export Plug-In . SVG Version: 6.00 Build 0)  -->
<!DOCTYPE svg PUBLIC "-//W3C//DTD SVG 1.1//EN" "http://www.w3.org/Graphics/SVG/1.1/DTD/svg11.dtd">
<svg version="1.1" id="Слой_1" xmlns="http://www.w3.org/2000/svg" xmlns:xlink="http://www.w3.org/1999/xlink" x="0px" y="0px"
	 width="595.281px" height="612px" viewBox="0 114.445 595.281 612" enable-background="new 0 114.445 595.281 612"
	 xml:space="preserve">
<g>
	<path fill="#FFFFFF" d="M594.873,613.258c-1.893-14.305-10.15-26.638-22.654-33.836l-146.857-84.556
		c-17.986-10.356-40.805-7.341-55.486,7.339l-28.926,28.926c-7.697,7.699-19.875,8.381-28.32,1.583
		c-22.805-18.349-45.258-38.543-66.735-60.021c-21.477-21.478-41.671-43.93-60.022-66.734c-6.797-8.447-6.117-20.624,1.583-28.322
		l28.925-28.927c14.68-14.679,17.699-37.494,7.34-55.484l-84.555-146.858c-7.2-12.504-19.532-20.761-33.837-22.653
		c-14.306-1.896-28.362,2.875-38.565,13.078l-43.586,43.587c-30.42,30.422-30.909,86.068-1.375,156.691
		c28.398,67.907,81.394,142.662,149.222,210.493c67.831,67.829,142.585,120.825,210.494,149.224
		c34.764,14.537,65.895,21.801,92.18,21.8c27.111,0,49.064-7.731,64.512-23.177l43.586-43.588
		C591.998,641.618,596.763,627.562,594.873,613.258L594.873,613.258z M415.74,511.579l146.857,84.555
		c7.264,4.181,12.059,11.345,13.156,19.653c0.924,6.972-0.889,13.838-4.994,19.37L375.585,523.768l7.928-7.927
		C392.039,507.316,405.292,505.564,415.74,511.579L415.74,511.579z M102.798,142.832c8.309,1.1,15.472,5.895,19.653,13.157
		l84.555,146.858c6.017,10.448,4.263,23.701-4.262,32.226l-7.281,7.28l-112-194.526c4.578-3.391,10.054-5.231,15.762-5.231
		C100.409,142.595,101.603,142.674,102.798,142.832L102.798,142.832z M524.57,681.771c-24.168,24.168-73.596,23.155-135.613-2.779
		C323.31,651.54,250.758,600.02,184.662,533.925C118.565,467.828,67.045,395.274,39.594,329.63
		c-25.936-62.018-26.948-111.447-2.78-135.616l32.357-32.358L181.34,356.476l-7.522,7.522
		c-14.676,14.678-15.954,37.912-2.972,54.051c18.783,23.343,39.445,46.315,61.409,68.279c21.967,21.966,44.94,42.628,68.282,61.41
		c16.135,12.983,39.369,11.707,54.049-2.972l6.863-6.863l195.443,111.544L524.57,681.771L524.57,681.771z"/>
</g>
</svg>
