<?xml version="1.0" encoding="utf-8"?>
<!-- Generator: Adobe Illustrator 16.0.0, SVG Export Plug-In . SVG Version: 6.00 Build 0)  -->
<!DOCTYPE svg PUBLIC "-//W3C//DTD SVG 1.1//EN" "http://www.w3.org/Graphics/SVG/1.1/DTD/svg11.dtd">
<svg version="1.1" id="Слой_1" xmlns="http://www.w3.org/2000/svg" xmlns:xlink="http://www.w3.org/1999/xlink" x="0px" y="0px"
	 width="595.281px" height="612px" viewBox="0 114.445 595.281 612" enable-background="new 0 114.445 595.281 612"
	 xml:space="preserve">
<path fill="none" stroke="#FFFFFF" stroke-width="24" stroke-miterlimit="10" d="M297.092,130.255
	c161.878,0,293.095,131.217,293.095,293.102c0,161.872-131.217,293.089-293.095,293.089C135.22,716.445,3.99,585.228,3.99,423.356
	C3.99,261.471,135.22,130.255,297.092,130.255z"/>
<path fill="#FFFFFF" stroke="#FFFFFF" stroke-width="2.17" stroke-miterlimit="10" d="M286.019,551.906H309
	c0,0,6.968-0.765,10.517-4.598c3.264-3.51,3.16-10.102,3.16-10.102s-0.467-30.862,13.883-35.407
	c14.116-4.481,32.247,29.825,51.492,43.022c14.531,9.984,25.565,7.796,25.565,7.796l51.389-0.712c0,0,26.885-1.658,14.142-22.794
	c-1.062-1.735-7.407-15.645-38.205-44.227c-32.221-29.903-27.921-25.072,10.905-76.811c23.647-31.51,33.102-50.755,30.149-58.991
	c-2.823-7.848-20.203-5.763-20.203-5.763l-57.864,0.35c0,0-4.326-0.583-7.485,1.32c-3.108,1.865-5.129,6.217-5.129,6.217
	s-9.144,24.373-21.343,45.12c-25.771,43.748-36.106,46.066-40.303,43.347c-9.791-6.333-7.33-25.436-7.33-39.021
	c0-42.401,6.424-60.079-12.536-64.65c-6.294-1.528-10.931-2.525-27.009-2.694c-20.644-0.207-38.127,0.065-48.021,4.909
	c-6.579,3.225-11.656,10.412-8.561,10.826c3.82,0.505,12.484,2.331,17.069,8.587c5.932,8.068,5.725,26.187,5.725,26.187
	s3.406,49.925-7.965,56.115c-7.796,4.261-18.494-4.429-41.468-44.123c-11.772-20.333-20.657-42.815-20.657-42.815
	s-1.709-4.196-4.779-6.437c-3.704-2.732-8.884-3.601-8.884-3.601l-54.989,0.363c0,0-8.25,0.232-11.293,3.82
	c-2.694,3.198-0.208,9.804-0.208,9.804s43.048,100.718,91.795,151.472C235.265,554.962,286.019,551.906,286.019,551.906z"/>
</svg>
