<?xml version="1.0" encoding="utf-8"?>
<!-- Generator: Adobe Illustrator 16.0.0, SVG Export Plug-In . SVG Version: 6.00 Build 0)  -->
<!DOCTYPE svg PUBLIC "-//W3C//DTD SVG 1.1//EN" "http://www.w3.org/Graphics/SVG/1.1/DTD/svg11.dtd">
<svg version="1.1"
	 id="svg2" xmlns:dc="http://purl.org/dc/elements/1.1/" xmlns:cc="http://creativecommons.org/ns#" xmlns:rdf="http://www.w3.org/1999/02/22-rdf-syntax-ns#" xmlns:svg="http://www.w3.org/2000/svg"
	 xmlns="http://www.w3.org/2000/svg" xmlns:xlink="http://www.w3.org/1999/xlink" x="0px" y="0px" width="623.484px"
	 height="148.281px" viewBox="0 0 623.484 148.281" enable-background="new 0 0 623.484 148.281" xml:space="preserve">
<g id="Layer_x0020_1">
	<path id="path10" d="M623.482,148.281H0V65.695l28.121-0.323c0.151-0.116,0.271-2.199,0.367-2.326
		c0.668-0.889,0.152-2.012,0.754-3.062c1.256-0.583,2.57-1.066,3.962-1.066c0-0.532,0-0.933,0.172-1.333
		c-0.172-0.133-0.172-0.267-0.172-0.399c1.631-0.63,3.424-0.606,4.995,0c0,0.134,0,0.268,0,0.533c-0.172,0-0.172,0-0.172,0.134
		c0.172,0.134,0.345,0.399,0.517,0.667c1.658-0.429,3.662-0.667,5.34-0.667c0,0.267,0.689,0.934,0.345,1.2
		c0,5.313-0.345,12.886-0.345,17.063c0.823-0.64,4.391-3.934,3.101-4.933c0-0.134,0-0.134,0.173-0.134c-0.173,0-0.346,0-0.346,0
		c0-0.134,0-0.268,0.173-0.268c-0.338-0.392-1.96-1.199-1.55-1.199c-0.172-0.267-0.344-0.399-0.344-0.533
		c0-0.267,0.172-0.532,0.344-0.8c0.344-0.398,0.861-0.666,1.377-0.933c0.173-0.4,0.518-0.8,0.862-1.066c0-1.066,0-2.133,0-3.065
		c0-0.133,0-0.133,0.172-0.133c0.172-0.4,0.345-0.801,0.517-1.2c-0.172-0.267-0.345-0.399-0.345-0.533c0-0.399,0-1.333,0.689-1.333
		c-0.172-0.133-0.345-0.133-0.345-0.133c0.172-0.268,0.517-0.4,0.861-0.533c-0.172-0.133-0.172-0.133-0.172-0.133
		c0.172,0,0.345,0.133,0.689,0.266c-0.172,0-0.172,0-0.172,0c0.172,0.134,0.345,0.269,0.517,0.533c0,0.267,0,0.667,0,1.066
		c-0.861,0-0.345,1.199-0.345,1.6c0,0,0.517,0.267,0,0.267c0.173,0,0.345,0,0.689,0.135c0.172-0.4,0.517-0.801,1.033-0.801
		c0-2.386,2.171-4.08,3.962-5.466c0-0.267,0-0.533,0.172-0.799c-0.172-0.268-0.345-0.534-0.517-0.801
		c-0.172-0.133-0.172-0.268-0.172-0.399c0-0.134,0.172-0.134,0.345-0.134C55.08,54.52,55.08,54.52,55.08,54.52
		c0.172-0.134,0.689-0.533,0.172-0.533c0.517-0.399,0-1.467,0.345-1.732c-0.517,0-0.517-0.801-0.517-0.801
		c0.172-0.398,0.517-0.666,0.862-0.933c0.172,0,0.344,0,0.517,0.133c0.172,0.134,0.344,0.4,0.517,0.667c0,0,0,0,0.172,0.133
		c1.073-0.414,1.753-0.948,2.756-1.466c-0.172-0.399-0.344-0.8-0.344-1.2c0-0.799,0.689-0.398,1.206-0.799
		c0-0.4,0.172-0.8,0.345-1.2c-0.517,0,0.345-1.466,1.033-0.933c0.345-0.533,0.861-0.801,1.723-0.935
		c0.766-1.184,0.158-1.034,0.689-2.267c-0.517,0-0.173-0.933-0.173-0.933c0-0.134,0-0.134,0.173-0.134c0-0.134,0-0.267,0-0.267
		c0.172,0,0.517,0.133,0.861,0.267c0,0.268,0,0.667,0,1.065c-0.172,0-0.344,0-0.344,0c0,0.709,0,1.549,0,2.134c0,0,0.172,0,0.344,0
		c0.172,0.133,0.345,0.267,0.517,0.533c0-0.134,0-0.134,0.172-0.134s0.344,0,0.517,0.134c0,0.399,1.378,0.267,1.033,0.533
		c0.172,0,0.517,0.133,0.861,0.267c0,0-0.517,0.399,0.172,0.399c-0.688,0,0,1.065-0.344,1.065c0,0.134,0,0.268,0,0.4
		c1.206,0,0.861,1.6,0.861,2.133c1.069,0.413,1.767,0.899,2.928,1.199c0-1.352,1.895-1.402,1.895,1.333c-0.172,0-0.172,0-0.172,0
		c0,0.267,0,0.533,0.172,0.8c1.265,1.957-0.344,1.997-0.344,2.799c0.909,0.706,1.202,0.539,1.723-0.266c0-0.134,0-0.134,0.172-0.134
		c0-3.516-0.172-7.037-0.172-10.53c-0.172,0-0.172,0-0.172,0c-0.446-1.037-0.125-1.031-0.862-1.6c0-0.533,2.169-1.31,2.412-0.935
		c0-2.163,0.172-4.102,0.172-5.73c-0.172,0-0.172,0.134-0.172,0.267c0-0.032-6.925-3.999,0.344-3.999
		c-0.172-0.267-0.172-0.399-0.172-0.533s0-0.267,0-0.267c0-4.951,5.512-5.37,5.512-5.731c-1.708-0.662-2.692-0.761,0.861-2.133
		c0-0.801-0.201-4.017-0.689-5.865c-0.344-0.267-0.689-0.532-1.034-0.667c0-0.195,0-0.195,0,0c-0.65-0.504-0.361-0.781,0.861-1.732
		c0-0.133,0.172-0.267,0.344-0.267c-3.387-1.05,0.813-4.121,2.929-4.666c-0.172-0.532-0.172-0.933-0.172-1.333
		c-1.447,0,0.204-1.599,1.074-1.935c-0.027-0.382,0.518-3.122-0.385-3.264c-0.345-0.134-0.517-0.134-0.689-0.134
		c1.226,0.037,1.448-2.06,1.378-2.8c-0.402,0-0.804,0-1.206,0C85.57,1.864,85.398,1.73,85.225,1.73c0.344,0,1.206-0.533,1.55-0.268
		c-0.172-0.134-0.172-0.267-0.172-0.267c0-0.4,0.172-0.8,0.344-1.066C87.12,0,87.293,0,87.465,0c-0.188,0.291-0.327,0.945,0,1.199
		c0.287,0,0.575,0,0.861,0c0,0.133,0,0.267,0.172,0.533c-1.645-0.635-1.118,2.004-0.861,2.799c0.448,0.349,0.481,0.134,1.033,0.134
		c-1.356,0-0.861,1.865-0.861,3.466c0-0.197,1.378-0.118,1.378,2.134c-0.345,0.267-0.517,0.532-0.689,0.8
		c1.674,0,3.618,2.756,3.618,5.198c-0.172,0-0.172,0-0.172,0.133c0,0.267-0.875,0.059-0.875,0.325c0.831,0,1.563,0.886,1.563,1.407
		c0,0.603,0.238-0.051-0.345,0.4c-1.237,0-1.206,4.866-1.206,6.398c2.857,0,0.344,2.012,0.344,2.266
		c2.858,2.216,5.512,0.773,5.512,6.132c0-0.199,0.172-0.227,0.172,0.134c3.873,2.993,0.167,4.268-0.404,3.824
		c-0.457,0.707-0.594,4.492,0.06,5.506c0,0,0.172,0.134,0.345,0.268c0.861,0,0.689-0.268,1.206,0.133
		c0.861,0,0.861,0.934,1.033,0.934c-0.542,0.421-1.417,1.147-1.417,1.779c-1.454,2.815-1.544,16.564,0.384,19.549
		c0.704,0,0.861,1.028,0.861,1.6c7.945-1.534,1.913-0.399,9.889-0.399c0-0.133,0-0.268,0.172-0.399
		c-0.517-0.667-1.033-1.333-1.378-2c-0.172,0-0.172,0-0.172,0.135c-0.172-0.268-0.345-0.399-0.345-0.533
		c0-0.181,10.136-1.486,11.369-0.534c-0.172,0.134-0.172,0.268-0.172,0.4c0,0,0,0,0.172,0.134c-0.689,0-1.206,1.999-1.55,1.999
		c0,0.134,0,0.267,0.172,0.399c-0.172-0.134-0.172-0.267-0.172-0.267c0,0.133,0,0.398,0,0.666c0.172,0,0.345,0,0.689,0.134
		c1.261-0.489,1.63-0.934,3.273-0.934c0.172,0,0.344,0,0.516,0.134c0.173,0.267,0.345,0.533,0.518,0.8
		c0.688-0.134,1.55-0.134,2.411-0.134c0-0.133,0-0.268,0-0.399c5.602-2.167,16.552-17.518,17.743-22.128
		c0.172-0.398,0.517-0.8,0.861-1.199c0.172-0.399,0.345-0.8,0.517-1.199c0,0,0.172,0,0.344,0.134c0,0.533,0.344,2.532,1.206,2.532
		c-0.517,0-0.344,0.133,0,0.133c1.199,3.713,6.033,8.401,8.269,11.864c0.344,0.267,0.861,0.532,1.377,0.934
		c0.344,0,0.689,0.133,1.206,0.266c0.172,0.4,0.517,0.802,0.861,1.2c-0.172,0-0.172,0-0.172,0.134c0,0,0,0,0.172,0.134
		c-0.172,0-0.172,0.134-0.172,0.267c0,0.533,0,2.133,0.688,2.133c-0.172,0-0.172,0-0.172,0.134c1.466,1.134,3.661,4.331,5.168,4.799
		c0,0,9.905,1.29,11.231,1.582c0.978-0.898,1.968-1.735,3.051-2.573c0-0.798,1.16-0.798,1.675-0.398
		c0.516,0.101,1.031,0.199,1.547,0.398c0.128-0.101,0.258-0.101,0.386-0.101c0,0-0.386-1.097,0.129-0.697
		c0-0.398,1.288-0.3,1.675-0.3c0.128,1.196,0.128,0.799,1.288,1.098c1.576,0.915,3.171,1.711,4.767,2.593
		c0.516-0.1,1.031-0.199,1.675-0.199c0.645,0.101,1.289,0.299,2.062,0.498c0-0.697,0-1.396,0-1.994
		c0.129-0.1,0.258-0.198,0.387-0.198c0.258,0,0.644,0,1.031,0.1c1.031-0.1,2.062-0.199,3.221-0.199c0-0.101,0-0.2,0.129-0.2
		c-0.129-0.299-0.258-0.498-0.387-0.696c0.258-0.199,0.645-0.399,1.031-0.499c0.75-0.872,1.775-1.596,2.963-1.596
		c-0.772-0.599,0.437-4.863,0.645-5.186c0.129-0.1,0.258-0.1,0.515-0.1c0,1.029,0.426,4.533,1.005,5.287
		c0.911,1.188,3.892,0.961,3.892,2.29c-0.644,0.498-0.128,1.098-0.128,1.695c0.128,0,0.257,0,0.386,0.1
		c0.387-0.397,0.902-0.896,1.417-0.499c0.902,0,2.448-0.1,3.093,0.399c1.289,0,2.062,1.196,2.578,1.994
		c0.257,0,0.257-1.097,1.159-1.097c0-0.2,0-0.3,0.129-0.398c-0.258-0.101-0.387-0.101-0.515-0.101c0-0.199,0-0.398,0-0.498
		c0.644-0.499,0.257-1.197,0.515-1.695c0.129,0,0.258,0.1,0.516,0.199c0,0.397,0,0.798,0,1.297c1.16,0,0.386,0.697,0.386,1.196
		c0.258,0.1,0.645,0.198,1.031,0.397c0.102,0.552,0.202,1.104,0.368,1.656h0.705c-0.038-0.088-0.007-0.188,0.216-0.359
		c0.773-0.101,1.546-0.198,2.448-0.198c-0.129-1.396-0.129-2.794-0.129-4.09c-0.644-0.1-0.902-0.198-0.902-0.599
		c0.258-0.1,0.516-0.199,0.773-0.199c0-0.199,0-0.299,0-0.397c0-0.798,0-1.496,0-2.194c-0.128-0.299-0.257-0.598-0.387-0.797
		c0.129-0.102,0.387-0.2,0.645-0.2c0.258-0.498,0.516-0.896,0.902-1.296c0.387-1.496-0.129-1.896,1.933-2.095
		c1.083-2.091,3.194-3.079,5.283-3.89c0-0.696,0-1.296,0-1.894c0.129-0.102,0.258-0.2,0.515-0.2c0.258-0.1,0.516-0.1,0.773-0.1
		c-0.129-0.798-0.258-1.496-0.258-2.193c-0.258-0.101-0.516-0.101-0.645-0.101c0-0.199,0-0.3,0-0.398
		c0-0.397,0.387-0.397,0.516-0.499c0-1.296,0.257-1.595,1.289-2.592c0.387,0,0.644-0.599,0.644-0.898
		c0.129-0.197,0.258-0.397,0.516-0.598c0-0.199-1.031-4.188,0.387-3.091c0,0.997,0,1.994,0.129,2.991
		c0.129,0.397,0.257,0.896,0.387,1.396c0.644,0,1.16,0.499,1.675,0.698c0.258,0.698,0.516,1.396,0.773,2.094
		c0.129,0.102,0.386,0.2,0.645,0.3c0,0.101,0,0.199,0,0.299c-0.258,0.2-0.516,0.399-0.645,0.6c0,0.299,0,0.598,0,0.997
		c0,0.199,0.129,0.397,0.258,0.698c0.387,0,0.773,0,1.288,0.1c0,0.499,0.129,1.097,0.258,1.694c2.931,0,5.255,2.244,6.7,4.487
		c0.387,0.1,0.773,0.198,1.288,0.299c0.129,0.398,0.258,0.897,0.516,1.396c0.258,0.2,0.516,0.398,0.902,0.698
		c0.387,0.101,0.773,0.299,0.773,0.698c-1.031,0-0.257,2.293-0.257,2.69c0.129,0,0.386,0,0.644,0.102c0,0.1,0.129,0.299,0.258,0.498
		c-0.129,0.198-0.258,0.398-0.386,0.599c-0.258,0-0.387,0.1-0.516,0.199c0.129,0.997,0.386,1.993,0.644,2.991c0-0.1,0-0.1,0.129-0.1
		c2.964,0,6.314-0.101,9.278,0.198c0.129,0.101,0.258,0.2,0.516,0.3c0,0.1,0,0.199,0.128,0.299c0.258-0.599,0.644-1.097,1.031-1.595
		c1.289-0.2,2.577-0.3,3.865-0.399c0-0.997,0-1.994,0-2.892c-0.257-0.398-0.515-0.698-0.644-0.997
		c4.254-4.935,6.539-2.893,13.659-2.893c0.386-0.198,0.773-0.398,1.16-0.498c0.773,0,1.031-0.698,1.159-1.196
		c0.129-0.101,0.387-0.101,0.645-0.101c0.258,0.3,0.516,0.599,0.902,0.997c1.289,0,1.804,0.6,2.191,1.297
		c0.773,0,4.51,0,5.025-0.398c-0.129-0.399-0.258-0.798-0.258-1.097c-0.515-0.2-0.773-0.799-0.515-1.196
		c0.386-0.3,1.417-1.098,2.061-1.098c0-0.897,0-1.795,0.129-2.594c1.289,0,0.644,2.493,1.289,2.992c0.902,0,1.289,0.299,1.546,0.996
		c1.031,0,2.19,0,3.351,0c-0.129-0.996-0.129-1.994-0.129-2.991c-0.387-0.299-0.773-0.598-1.031-0.798
		c-0.386-0.298-0.773-0.498-1.031-0.697c0.129-0.101,0.258-0.199,0.387-0.199c0.516-0.1,1.031-0.199,1.675-0.199
		c-0.129,0-0.257,0-0.387,0c-0.129-0.199-0.257-0.299-0.257-0.398c0.387-0.199,0.773-0.398,1.16-0.598
		c0.128-0.102,0.257-0.2,0.386-0.3c0-0.499,0-0.997,0.129-1.396c-0.129-1.195-0.258-2.293-0.258-3.39
		c-0.258-0.399-1.031-0.897-0.773-1.396c0-0.1,0.129-0.1,0.257-0.1c0-0.199,0.129-0.399,0.258-0.598
		c0.128-0.2,0.257-0.301,0.516-0.399c-0.258-0.299-0.387-0.499-0.516-0.697c0.257-0.3,0.516-0.499,0.773-0.698
		c-0.129-0.1-0.257-0.1-0.387-0.1c0.129-0.3,0.258-0.499,0.387-0.698c0.129-0.599,0.258-1.097,0.387-1.596c0-0.599,0-1.197,0-1.695
		c0.129,0,0.257,0,0.516,0c-0.129,0.698-0.129,1.396-0.129,2.095c0.129,0.599,0.386,1.196,0.645,1.795c-0.129,0-0.258,0-0.258,0.101
		c0.258,0,0.516,0,0.773,0c0.129,0,0.258,0.1,0.387,0.199c0,0.1,0,0.299,0.129,0.498c-0.129,0.101-0.257,0.2-0.386,0.397
		c0.515-0.1,1.03-0.197,1.546-0.197c-0.387-0.499-0.773-0.998-1.16-1.396c0-0.199,0-0.398,0-0.599
		c0.773-0.599,1.547-1.196,2.448-1.695c0-1.495,0-2.991,0-4.388c-0.258-0.198-0.516-0.398-0.773-0.599
		c0.259-0.299,0.517-0.498,0.773-0.697c-0.646-0.398-0.901-0.6-0.901-1.196c0.128-0.3,0.257-0.599,0.516-0.798
		c0.258-0.299,0.516-0.498,0.772-0.698c0.258-0.199,0.516-0.397,0.902-0.499c-0.129-0.498-0.646-1.495,0.515-1.495
		c0-0.299,0.129-0.499,0.258-0.696c0-1.597,0-3.093,0-4.589c0-0.397-0.516-1.495-0.129-1.794c-0.129-0.199-0.258-0.398-0.258-0.599
		c0.387,0,0.258-0.2,0.645,0.1c0,0.3,0,0.698,0,1.098c0.13,0,0.259,0,0.388,0.1c-0.129,0.101-0.258,0.2-0.258,0.399
		c-0.13,0-0.13,0-0.13,0.1c0.259,1.694-0.129,3.889,0.517,5.584c1.03,0,0.772,0.698,0.901,1.296c0.772,0.6,1.547,1.197,2.319,1.896
		c0,0.199,0,0.498,0.129,0.798c-0.129,0.299-0.258,0.599-0.387,0.896c0.258,0.101,0.515,0.199,0.772,0.3
		c-0.129,0.3-0.259,0.599-0.387,0.897c-0.258,0-0.387,0-0.516,0.1c0,1.396,0,2.793,0.129,4.188c0,0,0,0,0,0.1c0,0.101,0,0.199,0,0.3
		c0.773,0.3,1.289,0.697,1.675,1.297c0,0.198,0,0.498,0.129,0.798c0.129-0.101,0.258-0.2,0.517-0.3c0-0.398-0.388-0.498,0-1.098
		c0.129-1.195,0.258-2.293,0.516-3.39c0.128,0,0.258,0,0.516,0c-0.129,0.498-0.258,1.097-0.258,1.695
		c0.129,0.598,0.258,1.195,0.386,1.794c0.13,0.2,0.26,0.398,0.388,0.599c-0.258,0-0.516,0-0.772,0.1c0,0.3,0.258,0.3,0.646,0.3
		c0.128,0.199,0.386,0.398,0.644,0.599c0,0.1,0,0.199,0.129,0.398c-0.258,0.398-0.771,0.799-0.258,1.196c0.129,0,0.258,0,0.387,0
		c0,0.6,0.258,0.6,0.902,0.797c0,0,0,0.102,0.129,0.2c-0.258,0.299-0.645,0.399-0.645,0.798c-0.259,0.199-0.517,0.398-0.646,0.599
		c-0.129,0.101-0.258,0.3-0.258,0.499c0.129,1.496,0.258,2.991,0.387,4.486c0.129,0.199,1.16,0.698,0.902,0.897
		c-0.258,0-0.646,0.199-0.387,0.397c0.129,0,0.258,0,0.516,0c0-0.1-0.258-0.198,0.129-0.198c0,0.299,1.03,0.499,1.288,0.499
		c-0.129,0.099-0.256,0.299-0.256,0.498c-0.131-0.101-0.131-0.101-0.131-0.101c-0.386,0.101-0.772,0.299-1.03,0.498
		c-0.258,0-0.387,0.102-0.516,0.2c0,0.199-0.13,2.194,0.387,1.795c0-0.101,0-0.199,0-0.199c0.129-0.101,0.645-0.499,0.9-0.3
		c5.65,0,16.689-0.986,21.906,0.199c0.129-0.1,0.258-0.1,0.387-0.1c2.566,1.189,4.039,5.816,7.4,4.89
		c0.055-1.658,0.113-3.317,0.223-4.976c-0.276-0.276-0.555-0.555-0.772-0.831c-0.224-0.056-0.224-0.056-0.334-0.663
		c-0.883-0.719-0.883-0.719-0.828-0.885c0.609-0.886,0.496-1.104,1.768-1.66c7.468-5.527,13.658-12.882,20.24-19.462
		c0-0.167,0-0.332,0-0.441c-0.74,0-0.369-0.395,0.109-0.554c-0.058-0.222-0.109-0.388-0.109-0.553
		c0.832,0.092,1.492-0.192,1.492,0.72c-0.166,0-0.277,0-0.389,0c-0.056,0.164-0.109,0.33-0.109,0.553
		c1.934,1.715,1.934,1.715,2.322,1.769c-0.111-0.441-0.222-0.883-0.277-1.326c0.389-0.274,0.775-0.498,1.219-0.718
		c0.109-0.443,0.273-0.831,0.441-1.218c-0.332-0.497-0.441-0.828-0.441-1.547c0.109-0.057,0.222-0.112,0.33-0.112
		c0.332-2.266,0.275-4.367,0.222-6.635c-0.607-0.553-0.607-0.553-0.718-0.94c0.166-0.108,0.33-0.22,0.496-0.331
		c0.056-0.166,0.111-0.274,0.222-0.387c0.221-1.271,0.497-1.604,1.438-2.378c-0.111-0.607-0.111-0.607,0.109-1.104
		c0.055-0.443,0.108-0.886,0.166-1.271c0.274-1.659,0.274-1.659,0.553-1.937c0.387,0.387,0.387,1.16,0.387,1.713
		c0.111,0.554,0.277,1.106,0.441,1.659c0,0.165,0.057,0.332,0.11,0.555c0.166,0.993,0.998,1.73,1.328,2.837
		c0.058,0.109,0.166,0.277,0.277,0.442c0.332,0.165,0.332,0.165,0.553,0.829c-0.276,0.11-0.553,0.222-0.83,0.388
		c-0.168,2.359-0.289,5.262,0.607,7.501c-0.166,0.222-0.275,0.441-0.389,0.719c-0.164,0.83,0.168,1.438,0.664,2.046
		c0.331,0.276,0.719,0.442,0.719,0.94c-0.275,0.166-0.498,0.331-0.719,0.552c0,1.43,0.057,2.944,0.165,4.369
		c1.851,1.386,8.658,6.854,10.617,6.854c0-0.939,0-1.88,0-2.763c0.166-0.057,0.332-0.111,0.498-0.168
		c-0.332-0.331-0.332-0.331-0.387-0.829c0.164-0.055,0.387-0.11,0.606-0.11c0.166-0.772,0.332-1.548,0.498-2.266
		c0.111-0.056,0.275-0.113,0.441-0.113c0.109,0.721,0.221,1.439,0.332,2.213c0.111,0.058,0.221,0.112,0.387,0.166
		c0.166,1.493,0.332,3.041,0.554,4.592c2.95,0.884,5.776,3.149,8.129,4.811c0.719,0,0.993-0.334,1.491-0.829
		c-0.276-0.389-0.276-0.389-0.221-0.665c0.275-1.436,0.275-1.436,0.332-5.752c0.166-0.054,0.389-0.107,0.607-0.107
		c0.057,1.934,0.11,3.868,0.168,5.859c0,0.331,0,0.665,0,1.051c0.108,0,0.221,0,0.385,0c0.057,0.885,0.111,1.771,0.166,2.653
		c0.443,0.057,0.885,0.112,1.328,0.166c-0.443,1.327-0.443,1.327-0.83,1.771c0.188,1.121-0.521,2.896,0.057,3.76
		c0.222-0.11,0.443-0.223,0.717-0.276c0.222,0.719-0.387,1.992-0.606,2.71c0.137,2.072-0.156,6.148,1.326,7.63
		c0.11-0.167,0.223-0.332,0.332-0.443c0.332,1.66,0.332,1.66,0.664,2.38c0.108,0,0.221,0,0.332,0c0,0.108,0,0.221,0,0.388
		c0.498,0.055,0.996,0.109,1.491,0.165c-0.053-0.388-0.053-0.774-0.053-1.16c0.109-0.056,0.273-0.11,0.441-0.11l0.043,0.511
		c0.141,0.001,0.287,0.008,0.473,0.055c0.389-0.829,0.693-0.84,1.48-0.831c0.307-2.092,0.504-4.169,0.547-6.369
		c0.164,0,0.332,0,0.553,0c0.223,2.075,0.375,3.506,0.486,4.604c0.354,0,0.416-0.111,0.801-0.111c0-0.439,0-0.884,0-1.271
		c0.223,0,0.443,0,0.664,0c0.774-1.937,2.047-3.815,4.147-4.646c0.607-1.658,0.496-2.378,0.496-4.092
		c0.443-0.496,0.443-0.496,1.328-2.488c-0.055-0.828-0.11-1.658-0.166-2.432c0.166,0,0.332,0,0.554,0
		c-0.056,0.883-0.109,1.768-0.109,2.708c0,0.333,0,0.664,0.055,0.995c1.051,1.217,0.994,1.826,0.719,3.43
		c0.771,1.105,0.332,1.879,1.771,2.432c1.492,1.384,1.492,1.384,2.543,2.82c0.168,0.386,0.33,0.829,0.553,1.271
		c1.881,0.166,1.992-0.939,2.931,1.105c0.166,0,0.334,0,0.553,0c0.057-0.333,0.111-0.664,0.168-0.939
		c0.551,0.111,1.104,0.222,1.715,0.388c0.053-0.83,0.109-1.604,0.166-2.378c0.166,0,0.33,0,0.551,0
		c0.058,1.66,0.058,1.66,0.277,2.045c0.44,0.111,0.883,0.222,1.381,0.333c0-0.498,0-0.996,0.057-1.493
		c-0.057-0.885-0.057-0.885,0.275-2.213c0.057-5.363,0.113-10.726,0.223-16.034c-0.108-0.111-0.166-0.221-0.223-0.33
		c-2.359-2.36-0.336-2.159,0.775-1.882c-0.433-12.954,0.688-9.979-0.224-14.707c-0.387-0.388-0.387-0.388-0.553-1.217
		c-0.455-0.686-0.135-2.283-0.055-3.096c1.071,0,2.137,0.055,3.207,0.055c0.168-0.055,0.332-0.111,0.553-0.166
		c0-0.221,0-0.441,0-0.663c-0.275-0.055-0.496-0.11-0.719-0.165c0-0.222,0-0.443,0-0.609c0.055-0.056,0.166-0.056,0.276-0.056
		c0-0.055,0-0.11,0.058-0.165c0-0.111,0-0.221,0-0.276c0.551-0.221,0.838-0.344,1.444-0.564c0.056-1.991,0.377-4.079,0.435-6.016
		c0.11,0,0.219,0,0.33,0c0,1.99,0.28,4.103,0.28,6.147c0.72,0.166,1.158,0.266,1.933,0.488c0,0.055,0,0.108,0,0.221
		c0,0.11,0,0.221,0,0.331c0,0.221,0,0.443,0,0.664c-0.332,0-0.664,0.056-0.996,0.11c-0.055,0.11-0.109,0.276-0.166,0.44
		c1.162,0.111,2.379,0.224,3.596,0.332c0.129,0.911,0.242,1.812,0.441,2.712c-0.166,0.828-0.277,1.381-0.719,2.043
		c-0.058,0.057-0.111,0.112-0.111,0.166c-0.719,0.72-0.33,11.611-0.387,13.989c2.194,0,1.162,1.77,0.553,2.986
		c0,5.3,0,10.689,0,16.035c0.166,0.164,0.334,0.386,0.498,0.607c-0.221,0.221-0.221,0.221-0.221,0.663c0,0.331,0,0.719,0,1.105
		c0,0.109,0.055,0.221,0.108,0.388c0.387-0.109,0.83-0.167,1.273-0.222c0,0.111,0,0.222,0,0.388c0.221,0,0.496,0,0.772,0
		c0-0.166,0-0.275,0-0.388c1.511,0.503,2.572,0.939,4.201,0.939c0-0.166,0-0.275,0-0.388c0.609,0.111,1.271,0,1.549-0.553
		c0.166,0.164,0.332,0.331,0.498,0.553c0.939,0.055,0.939,0.055,1.271,0.276c0.17-0.516,0.18-0.591,0.772-0.441
		c0-0.166,0-0.333,0-0.443c2.269,0.388,2.269,0.388,3.318,0.277c0-0.277,0-0.552,0-0.774c0.221,0,0.441,0,0.717,0
		c0.058,0.276,0.111,0.607,0.168,0.94c0.166,0,0.33,0,0.553,0c0-0.224,0-0.388,0-0.554c0.109-0.276,0.222-0.498,0.388-0.719
		c0-0.11,0-0.168,0-0.222c0.166,0,0.332,0,0.553,0c0.057-1.105,0.111-2.213,0.166-3.318c-0.109,0-0.223,0-0.332,0
		c0.166-1.382,0.389-2.709,0.607-4.036c0.057,0.498,0.168,0.996,0.276,1.493c1.328-0.772,0.941-2.488,0.83-3.813
		c-0.057-0.277-0.057-0.555-0.057-0.829c0.057-0.058,0.168-0.112,0.276-0.167c0.166-0.608,0.388-1.162,0.609-1.715
		c0.111,0.057,0.221,0.11,0.387,0.167c0.056,0.719,0,1.052,0.498,1.548c0.056,1.438,0.109,2.93,0.22,4.424
		c0.223,0.055,0.5,0.11,0.774,0.165c0-0.441,0-0.886,0-1.271c0.111,0,0.221,0.056,0.387,0.109c0.166,2.158,0.058,4.259-0.055,6.359
		c0.111,0,0.221,0,0.387,0c0.058-0.996,0.111-1.991,0.166-2.986c0.166,0,0.332,0,0.554,0c0.276,1.99,0.166,3.649,1.271,5.309
		c0.111-0.167,0.111-0.167,2.435-0.109c0-0.222,0.055-0.388,0.11-0.552c0.551,0,0.607,0.219,0.994,0.605c0.498,0,0.996,0,1.549,0
		c0.828-1.382,1.051-3.705,1.217-5.253c0.166,0,0.33,0,0.554,0c-0.056,0.719-0.111,0.886,0.166,1.492
		c0.166,1.052,0.332,2.103,0.553,3.154c0.055,0.107,0.109,0.219,0.166,0.385c0.275,0.109,0.609,0.222,0.938,0.333
		c1.824,0,3.648,0,5.529,0c0.111-0.057,0.221-0.111,0.387-0.111c0-0.164,0-0.332,0-0.441c0.222,0,0.498,0,0.775,0
		c0.111,1.051,0.221,2.101,0.33,3.151c0.166,0,0.332,0,0.555,0c0,0.054,0,0.166,0,0.275c0.828,0,1.713,0,2.599,0
		c0.055-0.386,0.164-0.774,0.274-1.16c0.277-0.057,0.553-0.057,0.83-0.057c0.055,0.333,0.109,0.662,0.166,0.994
		c1.105,0,2.269,0,3.43,0c0-0.054,0-0.054,0-0.054c0-0.167,0-0.167,0.662-0.054c0.222,1.049,0.498,2.1,0.773,3.148
		c0.166,0.056,0.332,0.111,0.498,0.223c2.383-0.904-1.304,0.332,1.371,0.332c0.387,0,0.772,0.055,1.159,0.109
		c0.72,0.222,1.328,0.277,2.156,0.277c0-0.664,0-1.274,0.056-1.881c0.442-0.055,0.885-0.055,1.327-0.055c0,0.331,0,0.717,0,1.104
		c0.554,0,1.105,0,1.658,0c0.39-0.276,0.39-0.276,1.271-0.444c0.389-0.164,0.774-0.274,1.217-0.385
		c-0.055-0.332-0.111-0.664-0.111-0.94c0.111,0,0.222,0,0.39,0c0.055,0.276,0.108,0.608,0.164,0.94c0.11,0,0.276,0,0.442,0
		c0-0.058,0.055-0.11,0.111-0.167c0-0.606,0.055-1.161,0.108-1.714c0.166-0.055,0.332-0.11,0.554-0.167
		c1.271-0.884,2.211-0.497,3.649-0.384c0.166-0.277,0.33-0.556,0.498-0.775c0.33-0.056,0.718-0.111,1.105-0.111
		c0,0.94,0,1.937,0.057,2.931c3.83,1.2,3.674-0.518,5.836-0.275c-0.11,0.497-0.11,0.497,0.056,0.939
		c0.055,0,0.166,0.056,0.276,0.108c0.185-1.297,0.431-2.523,0.719-3.813c0-0.11,0-0.221,0-0.275
		c0.828-0.222,0.828-0.222,2.378-0.222c-0.056,0.168-0.111,0.332-0.166,0.497c0.166,0.11,0.329,0.223,0.553,0.387
		c0.108,0,0.221,0,0.389,0c1.334-2.352,2.332-4.808,3.592-7.188c-0.055-0.057-0.11-0.057-0.166-0.057
		c0.058-0.829,0.166-1.657,0.277-2.432c0.166,0,0.33,0,0.553,0c0,0.553,0,1.162,0,1.77c1.523-0.18,3.094-0.557,4.588-0.664
		c0.111-0.331,0.224-0.663,0.39-0.939c2.12-0.133,4.42,0.24,6.413-0.331c-0.108-0.221-0.166-0.442-0.223-0.664
		c0.775-0.221,0.775-0.221,1.549-0.719h0.037l0.131-18.522c-0.11-0.554-0.996-0.275-0.996-1.16c0.275-0.111,0.554-0.223,0.886-0.277
		c0.221-0.607,0.44-1.216,0.664-1.824c-0.06-0.663-0.111-1.327-0.168-1.936c-0.718-0.165-0.662-0.828,0-0.996
		c0.057-0.109,0.108-0.221,0.168-0.275c0-0.608,0.055-1.161,0.11-1.713c0.273-0.057,0.552-0.112,0.828-0.112
		c-0.057,0.166-0.111,0.389-0.111,0.609c0.166,0.387,0.332,0.773,0.554,1.216c0.223,0.111,0.442,0.275,0.664,0.443
		c2.793-0.799,2.143-0.585,3.649-3.596c0.47-1.529,1.129-5.783,1.215-7.52c-0.993-0.995-1.604-1.105-0.553-2.157
		c0-0.331,0.058-0.662,0.109-0.995c0-0.055,0-0.109,0-0.166c0-0.109,0-0.221,0-0.273c-0.441-0.389-1.049-0.556-1.049-1.219
		c0.387-0.166,0.772-0.333,1.217-0.44c0,0,0.055,0,0.109,0c0.11-0.721,1.104-1.881,1.713-2.157c0.498-1.604,0.059-3.87-0.107-5.529
		c0.107-0.109,0.221-0.222,0.385-0.331c0.556-0.941,0.996-1.824,2.047-2.435c0-0.662,0.056-1.327,0.109-1.934
		c-0.109-0.056-0.221-0.112-0.275-0.167c-0.055-0.939-0.055-0.939,0.222-1.936c0.166,0,0.332,0,0.498,0.055
		c0.221,0.554,0.606,1.824,0.166,2.269c-0.109,2.377,1.271,1.438,2.047,3.205c0.33,0.223,0.33,0.223,0.44,0.555
		c0.054,0.055,0.111,0.11,0.222,0.166c-0.109,0.166-0.222,0.331-0.275,0.553c-0.057,1.492-0.111,2.986-0.166,4.532
		c0.885,0.664,0.885,0.664,1.051,1.106c0.166,0.276,0.33,0.553,0.554,0.829c0.553,0.111,1.104,0.223,1.713,0.332
		c0,0.222,0.057,0.442,0.11,0.664c-0.332,0.165-0.608,0.33-0.887,0.497c0,0.442,0,0.886,0,1.385c0.168,0,0.168,0,0.555,1.436
		c-0.932,1.551,0.127,8.37,0.941,10.063c0.221,0,0.44,0.055,0.662,0.109c0.057,0.332,0.11,0.721,0.166,1.107
		c1.192,1.534,1.867,1.843,3.594,2.765c0-0.499,0-0.997,0-1.494c-0.553-1.05-0.553-1.05-0.553-1.549c0-0.108,0-0.165,0.057-0.221
		c0.222-0.884,0.109-1.99,1.271-1.88c0,0.498,0.055,1.051,0.108,1.604c0.607,0.223,0.607,0.223,0.773,0.497c0,0.112,0,0.221,0,0.332
		c-0.166,0.222-0.275,0.498-0.387,0.775c-0.054,0.497-0.109,0.993-0.166,1.548c0.608,0.388,0.885,1.382,1.106,2.101
		c0.221,0.111,0.496,0.223,0.773,0.331c-0.332,0.443-0.332,0.443-0.886,0.721c0,0.109,0,0.275,0,0.441c0.111,0,0.222,0,0.388,0
		c0,0.11,0,0.221,0,0.388c-0.224,0-0.388,0-0.554,0c0.056,5.087,0.111,10.175,0.166,15.262c0.166,0,0.166,0,0.166-1.438
		c0.109,0,0.222,0,0.388,0c0,1.438,0,2.931,0,4.422c0.11,0,0.221,0,0.387,0c0,2.521,0.166,4.337,0.166,0c1.937,0,3.926,0,5.916,0
		c0,0.167,0,0.331,0,0.555c1.217,0,4.226,17.608,5.226,17.896c-0.111-0.278-0.166-0.498-0.224-0.718
		c0.389-0.111,0.389-0.111,1.219,0.109c1.105-1.714,5.142-3.869,6.744-4.979c0.111-0.165,0.222-0.274,0.332-0.386
		c-0.055-0.166-0.11-0.276-0.166-0.389c0.125-0.017,0.166-0.621,0.166-1.879c0.111-0.056,0.222-0.056,0.388-0.056
		c0.11,0,0.221,0,0.389,0c0.131,1.195,0.26,1.89,0.717,1.935c2.371-0.338,4.828-1.547,7.574-1.547
		c0.11-0.222,0.11-0.222,0.885-0.276c1.105-0.829,0.113-1.88,0.721-2.985c0.607,0,0.607,1.771,0.607,2.156
		c0.109,0,1.525,1.262,2.102,1.492c0.939,0,1.881-0.276,2.32,0.72c0.057,0,0.111,0,0.168,0c1.699,0.099,3.035,0.048,4.809,0
		c0-0.165-0.021-1.468-0.021-1.578l26.543-0.004l0.002,82.759h0.004V148.281z M433.802,34.777c-1.391-0.259-1.438,0.2-1.77,0.332
		c-0.785,1.458,0.174,2.678,1.604,2.488C434.488,37.25,434.935,36.877,433.802,34.777L433.802,34.777z M384.583,36.901
		c0-0.83-0.164-0.886,0.775-1.107c-0.109,0.333-0.166,0.72-0.222,1.107C384.917,36.901,384.751,36.901,384.583,36.901
		L384.583,36.901z M369.335,11.224c-0.166-0.056-0.453-2.855-0.619-2.91c0.111-1.215,0.111-1.215,0.332-1.714
		c0.111,0,0.275,0,0.443,0C369.546,7.319,369.666,10.063,369.335,11.224L369.335,11.224z M83.503,38.922
		c-1.017-0.934-1.072-3.008-0.345-4.132c-0.344-1.868,5.719-2.767,7.407,0c0.353,0.226,0.313,3.52-0.689,4.132
		C87.582,41.205,83.503,39.077,83.503,38.922L83.503,38.922z M200.973,56.416c0.128,0,0.257,0,0.515,0c0,0.299,0,0.6,0.129,0.997
		C200.746,57.413,200.447,56.823,200.973,56.416L200.973,56.416z M84.437,35.772c1.902-1.471,2.15-2.712,4.922,0.484
		C88.799,40.132,84.437,38.687,84.437,35.772z M294.008,57.413c-0.129-0.199-0.386-0.299,0-0.299
		C294.008,57.214,294.008,57.314,294.008,57.413z"/>
</g>
</svg>
