<?xml version="1.0" encoding="utf-8"?>
<!-- Generator: Adobe Illustrator 16.0.0, SVG Export Plug-In . SVG Version: 6.00 Build 0)  -->
<!DOCTYPE svg PUBLIC "-//W3C//DTD SVG 1.1//EN" "http://www.w3.org/Graphics/SVG/1.1/DTD/svg11.dtd">
<svg version="1.1"
	 id="svg2" xmlns:dc="http://purl.org/dc/elements/1.1/" xmlns:cc="http://creativecommons.org/ns#" xmlns:rdf="http://www.w3.org/1999/02/22-rdf-syntax-ns#" xmlns:svg="http://www.w3.org/2000/svg"
	 xmlns="http://www.w3.org/2000/svg" xmlns:xlink="http://www.w3.org/1999/xlink" x="0px" y="0px" width="621.5px"
	 height="160.636px" viewBox="0.991 82.005 621.5 160.636" enable-background="new 0.991 82.005 621.5 160.636"
	 xml:space="preserve">
<g id="Layer_x0020_1">
	<path id="path10" d="M624.473,254.639H0.991v-96.152l28.121-0.378c0.151-0.134,0.271-2.559,0.367-2.704
		c0.668-1.035,0.152-2.344,0.754-3.564c1.256-0.682,2.57-1.242,3.962-1.242c0-0.619,0-1.086,0.172-1.553
		c-0.172-0.153-0.172-0.309-0.172-0.463c1.631-0.732,3.424-0.702,4.995,0c0,0.156,0,0.313,0,0.621c-0.172,0-0.172,0-0.172,0.156
		c0.172,0.156,0.345,0.461,0.517,0.775c1.658-0.5,3.662-0.775,5.34-0.775c0,0.311,0.689,1.086,0.345,1.396
		c0,6.184-0.345,15.001-0.345,19.863c0.823-0.742,4.391-4.578,3.101-5.742c0-0.158,0-0.158,0.173-0.158c-0.173,0-0.346,0-0.346,0
		c0-0.154,0-0.31,0.173-0.31c-0.338-0.456-1.96-1.398-1.55-1.398c-0.172-0.31-0.344-0.462-0.344-0.62
		c0-0.308,0.172-0.615,0.344-0.93c0.344-0.461,0.861-0.777,1.377-1.086c0.173-0.467,0.518-0.932,0.862-1.239
		c0-1.241,0-2.483,0-3.569c0-0.155,0-0.155,0.172-0.155c0.172-0.466,0.345-0.933,0.517-1.396c-0.172-0.312-0.345-0.465-0.345-0.621
		c0-0.465,0-1.553,0.689-1.553c-0.172-0.154-0.345-0.154-0.345-0.154c0.172-0.313,0.517-0.466,0.861-0.619
		c-0.172-0.156-0.172-0.156-0.172-0.156c0.172,0,0.345,0.156,0.689,0.31c-0.172,0-0.172,0-0.172,0
		c0.172,0.156,0.345,0.315,0.517,0.62c0,0.31,0,0.777,0,1.242c-0.861,0-0.345,1.395-0.345,1.861c0,0,0.517,0.313,0,0.313
		c0.173,0,0.345,0,0.689,0.158c0.172-0.467,0.517-0.934,1.033-0.934c0-2.778,2.171-4.75,3.962-6.363c0-0.313,0-0.624,0.172-0.932
		c-0.172-0.313-0.345-0.621-0.517-0.932c-0.172-0.154-0.172-0.314-0.172-0.467c0-0.154,0.172-0.154,0.345-0.154
		c-0.172-0.156-0.172-0.156-0.172-0.156c0.172-0.156,0.689-0.621,0.172-0.621c0.517-0.466,0-1.711,0.345-2.018
		c-0.517,0-0.517-0.931-0.517-0.931c0.172-0.464,0.517-0.775,0.862-1.087c0.172,0,0.344,0,0.517,0.155
		c0.172,0.156,0.344,0.464,0.517,0.776c0,0,0,0,0.172,0.155c1.073-0.485,1.753-1.106,2.756-1.708
		c-0.172-0.466-0.344-0.933-0.344-1.396c0-0.933,0.689-0.461,1.206-0.933c0-0.467,0.172-0.93,0.345-1.396
		c-0.517,0,0.345-1.707,1.033-1.086c0.345-0.621,0.861-0.934,1.723-1.091c0.766-1.379,0.158-1.202,0.689-2.638
		c-0.517,0-0.173-1.086-0.173-1.086c0-0.158,0-0.158,0.173-0.158c0-0.154,0-0.313,0-0.313c0.172,0,0.517,0.158,0.861,0.313
		c0,0.314,0,0.777,0,1.24c-0.172,0-0.344,0-0.344,0c0,0.825,0,1.803,0,2.484c0,0,0.172,0,0.344,0
		c0.172,0.155,0.345,0.313,0.517,0.621c0-0.156,0-0.156,0.172-0.156s0.344,0,0.517,0.156c0,0.463,1.378,0.31,1.033,0.619
		c0.172,0,0.517,0.156,0.861,0.313c0,0-0.517,0.465,0.172,0.465c-0.688,0,0,1.238-0.344,1.238c0,0.154,0,0.313,0,0.465
		c1.206,0,0.861,1.864,0.861,2.483c1.069,0.481,1.767,1.046,2.928,1.396c0-1.575,1.895-1.635,1.895,1.553c-0.172,0-0.172,0-0.172,0
		c0,0.313,0,0.621,0.172,0.929c1.265,2.28-0.344,2.326-0.344,3.261c0.909,0.821,1.202,0.629,1.723-0.309
		c0-0.156,0-0.156,0.172-0.156c0-4.096-0.172-8.195-0.172-12.26c-0.172,0-0.172,0-0.172,0c-0.446-1.207-0.125-1.201-0.862-1.865
		c0-0.619,2.169-1.525,2.412-1.088c0-2.518,0.172-4.777,0.172-6.67c-0.172,0-0.172,0.156-0.172,0.311
		c0-0.037-6.925-4.657,0.344-4.657c-0.172-0.31-0.172-0.464-0.172-0.62c0-0.153,0-0.309,0-0.309c0-5.766,5.512-6.252,5.512-6.675
		c-1.708-0.771-2.692-0.882,0.861-2.482c0-0.93-0.201-4.675-0.689-6.827c-0.344-0.311-0.689-0.617-1.034-0.775c0-0.227,0-0.227,0,0
		c-0.65-0.588-0.361-0.909,0.861-2.016c0-0.156,0.172-0.313,0.344-0.313c-3.387-1.222,0.813-4.8,2.929-5.432
		c-0.172-0.619-0.172-1.087-0.172-1.553c-1.447,0,0.204-1.861,1.074-2.252c-0.027-0.445,0.518-3.634-0.385-3.801
		c-0.345-0.158-0.517-0.158-0.689-0.158c1.226,0.045,1.448-2.397,1.378-3.26c-0.402,0-0.804,0-1.206,0
		c-0.172-0.145-0.344-0.301-0.517-0.301c0.344,0,1.206-0.619,1.55-0.313c-0.172-0.156-0.172-0.312-0.172-0.312
		c0-0.466,0.172-0.931,0.344-1.241c0.173-0.148,0.346-0.148,0.518-0.148c-0.188,0.338-0.327,1.1,0,1.396c0.287,0,0.575,0,0.861,0
		c0,0.154,0,0.309,0.172,0.62c-1.645-0.738-1.118,2.333-0.861,3.259c0.448,0.404,0.481,0.154,1.033,0.154
		c-1.356,0-0.861,2.174-0.861,4.035c0-0.226,1.378-0.136,1.378,2.488c-0.345,0.311-0.517,0.615-0.689,0.932
		c1.674,0,3.618,3.207,3.618,6.049c-0.172,0-0.172,0-0.172,0.156c0,0.31-0.875,0.068-0.875,0.381c0.831,0,1.563,1.029,1.563,1.635
		c0,0.704,0.238-0.061-0.345,0.466c-1.237,0-1.206,5.663-1.206,7.448c2.857,0,0.344,2.344,0.344,2.64
		c2.858,2.575,5.512,0.896,5.512,7.138c0-0.232,0.172-0.264,0.172,0.154c3.873,3.486,0.167,4.973-0.404,4.453
		c-0.457,0.822-0.594,5.23,0.06,6.41c0,0,0.172,0.156,0.345,0.314c0.861,0,0.689-0.314,1.206,0.154c0.861,0,0.861,1.089,1.033,1.089
		c-0.542,0.487-1.417,1.333-1.417,2.069c-1.454,3.275-1.544,19.283,0.384,22.76c0.704,0,0.861,1.197,0.861,1.865
		c7.945-1.788,1.913-0.466,9.889-0.466c0-0.156,0-0.311,0.172-0.467c-0.517-0.776-1.033-1.552-1.378-2.329
		c-0.172,0-0.172,0-0.172,0.16c-0.172-0.313-0.345-0.466-0.345-0.619c0-0.213,10.136-1.732,11.369-0.623
		c-0.172,0.156-0.172,0.313-0.172,0.467c0,0,0,0,0.172,0.156c-0.689,0-1.206,2.326-1.55,2.326c0,0.156,0,0.311,0.172,0.462
		c-0.172-0.153-0.172-0.308-0.172-0.308c0,0.154,0,0.464,0,0.774c0.172,0,0.345,0,0.689,0.155c1.261-0.571,1.63-1.088,3.273-1.088
		c0.172,0,0.344,0,0.516,0.158c0.173,0.308,0.345,0.618,0.518,0.93c0.688-0.155,1.55-0.155,2.411-0.155c0-0.156,0-0.311,0-0.467
		c5.602-2.521,16.552-20.394,17.743-25.759c0.172-0.463,0.517-0.934,0.861-1.395c0.172-0.468,0.345-0.934,0.517-1.396
		c0,0,0.172,0,0.344,0.156c0,0.619,0.344,2.947,1.206,2.947c-0.517,0-0.344,0.153,0,0.153c1.199,4.323,6.033,9.781,8.269,13.813
		c0.344,0.312,0.861,0.619,1.377,1.086c0.344,0,0.689,0.154,1.206,0.311c0.172,0.467,0.517,0.934,0.861,1.396
		c-0.172,0-0.172,0-0.172,0.158c0,0,0,0,0.172,0.154c-0.172,0-0.172,0.158-0.172,0.313c0,0.621,0,2.482,0.688,2.482
		c-0.172,0-0.172,0-0.172,0.158c1.466,1.32,3.661,5.041,5.168,5.588c0,0,9.905,1.502,11.231,1.841
		c0.978-1.046,1.968-2.021,3.051-2.995c0-0.93,1.16-0.93,1.675-0.464c0.516,0.119,1.031,0.231,1.547,0.464
		c0.128-0.119,0.258-0.119,0.386-0.119c0,0-0.386-1.277,0.129-0.811c0-0.465,1.288-0.35,1.675-0.35
		c0.128,1.391,0.128,0.932,1.288,1.279c1.576,1.064,3.171,1.99,4.767,3.016c0.516-0.113,1.031-0.229,1.675-0.229
		c0.645,0.119,1.289,0.351,2.062,0.577c0-0.808,0-1.623,0-2.316c0.129-0.12,0.258-0.233,0.387-0.233c0.258,0,0.644,0,1.031,0.118
		c1.031-0.118,2.062-0.23,3.221-0.23c0-0.119,0-0.232,0.129-0.232c-0.129-0.351-0.258-0.582-0.387-0.813
		c0.258-0.229,0.645-0.462,1.031-0.579c0.75-1.015,1.775-1.855,2.963-1.855c-0.772-0.701,0.437-5.662,0.645-6.04
		c0.129-0.116,0.258-0.116,0.515-0.116c0,1.196,0.426,5.276,1.005,6.156c0.911,1.381,3.892,1.117,3.892,2.666
		c-0.644,0.576-0.128,1.275-0.128,1.971c0.128,0,0.257,0,0.386,0.119c0.387-0.465,0.902-1.045,1.417-0.584
		c0.902,0,2.448-0.117,3.093,0.465c1.289,0,2.062,1.393,2.578,2.319c0.257,0,0.257-1.274,1.159-1.274c0-0.234,0-0.35,0.129-0.465
		c-0.258-0.119-0.387-0.119-0.515-0.119c0-0.229,0-0.461,0-0.578c0.644-0.58,0.257-1.393,0.515-1.973
		c0.129,0,0.258,0.119,0.516,0.232c0,0.461,0,0.927,0,1.51c1.16,0,0.386,0.809,0.386,1.393c0.258,0.113,0.645,0.229,1.031,0.459
		c0.102,0.645,0.202,1.287,0.368,1.931h0.705c-0.038-0.104-0.007-0.222,0.216-0.419c0.773-0.117,1.546-0.23,2.448-0.23
		c-0.129-1.627-0.129-3.252-0.129-4.762c-0.644-0.115-0.902-0.229-0.902-0.697c0.258-0.115,0.516-0.232,0.773-0.232
		c0-0.23,0-0.348,0-0.461c0-0.93,0-1.74,0-2.553c-0.128-0.348-0.257-0.697-0.387-0.93c0.129-0.117,0.387-0.233,0.645-0.233
		c0.258-0.578,0.516-1.041,0.902-1.507c0.387-1.744-0.129-2.207,1.933-2.441c1.083-2.432,3.194-3.581,5.283-4.529
		c0-0.809,0-1.51,0-2.205c0.129-0.118,0.258-0.231,0.515-0.231c0.258-0.116,0.516-0.116,0.773-0.116
		c-0.129-0.93-0.258-1.742-0.258-2.553c-0.258-0.118-0.516-0.118-0.645-0.118c0-0.231,0-0.35,0-0.463
		c0-0.461,0.387-0.461,0.516-0.583c0-1.507,0.257-1.855,1.289-3.017c0.387,0,0.644-0.697,0.644-1.044
		c0.129-0.23,0.258-0.462,0.516-0.696c0-0.233-1.031-4.876,0.387-3.602c0,1.162,0,2.323,0.129,3.483
		c0.129,0.461,0.257,1.043,0.387,1.627c0.644,0,1.16,0.578,1.675,0.811c0.258,0.813,0.516,1.627,0.773,2.438
		c0.129,0.122,0.386,0.232,0.645,0.35c0,0.119,0,0.233,0,0.35c-0.258,0.233-0.516,0.465-0.645,0.699c0,0.35,0,0.695,0,1.163
		c0,0.229,0.129,0.458,0.258,0.813c0.387,0,0.773,0,1.288,0.112c0,0.581,0.129,1.278,0.258,1.973c2.931,0,5.255,2.613,6.7,5.225
		c0.387,0.115,0.773,0.23,1.288,0.35c0.129,0.459,0.258,1.044,0.516,1.623c0.258,0.234,0.516,0.465,0.902,0.814
		c0.387,0.115,0.773,0.348,0.773,0.813c-1.031,0-0.257,2.67-0.257,3.129c0.129,0,0.386,0,0.644,0.121
		c0,0.116,0.129,0.348,0.258,0.582c-0.129,0.227-0.258,0.459-0.386,0.695c-0.258,0-0.387,0.115-0.516,0.232
		c0.129,1.158,0.386,2.317,0.644,3.482c0-0.119,0-0.119,0.129-0.119c2.964,0,6.314-0.117,9.278,0.23
		c0.129,0.12,0.258,0.236,0.516,0.348c0,0.117,0,0.235,0.128,0.35c0.258-0.697,0.644-1.274,1.031-1.857
		c1.289-0.232,2.577-0.35,3.865-0.466c0-1.157,0-2.317,0-3.364c-0.257-0.466-0.515-0.814-0.644-1.162
		c4.254-5.744,6.539-3.369,13.659-3.369c0.386-0.227,0.773-0.461,1.16-0.576c0.773,0,1.031-0.814,1.159-1.395
		c0.129-0.115,0.387-0.115,0.645-0.115c0.258,0.349,0.516,0.695,0.902,1.159c1.289,0,1.804,0.7,2.191,1.509
		c0.773,0,4.51,0,5.025-0.463c-0.129-0.464-0.258-0.929-0.258-1.277c-0.515-0.232-0.773-0.928-0.515-1.393
		c0.386-0.35,1.417-1.276,2.061-1.276c0-1.046,0-2.091,0.129-3.022c1.289,0,0.644,2.902,1.289,3.484
		c0.902,0,1.289,0.348,1.546,1.158c1.031,0,2.19,0,3.351,0c-0.129-1.158-0.129-2.322-0.129-3.484
		c-0.387-0.344-0.773-0.695-1.031-0.925c-0.386-0.349-0.773-0.581-1.031-0.813c0.129-0.117,0.258-0.23,0.387-0.23
		c0.517-0.119,1.031-0.23,1.676-0.23c-0.129,0-0.258,0-0.387,0c-0.129-0.232-0.258-0.35-0.258-0.465
		c0.387-0.231,0.773-0.459,1.16-0.695c0.129-0.118,0.258-0.231,0.387-0.348c0-0.581,0-1.164,0.129-1.627
		c-0.129-1.391-0.258-2.67-0.258-3.946c-0.259-0.466-1.031-1.046-0.773-1.628c0-0.115,0.129-0.115,0.257-0.115
		c0-0.23,0.129-0.464,0.258-0.694c0.128-0.235,0.257-0.352,0.517-0.466c-0.258-0.347-0.387-0.58-0.517-0.813
		c0.257-0.348,0.517-0.58,0.772-0.809c-0.129-0.119-0.256-0.119-0.387-0.119c0.129-0.349,0.258-0.582,0.387-0.813
		c0.13-0.697,0.259-1.277,0.388-1.859c0-0.695,0-1.391,0-1.971c0.129,0,0.257,0,0.517,0c-0.129,0.809-0.129,1.623-0.129,2.439
		c0.129,0.696,0.385,1.391,0.645,2.087c-0.129,0-0.258,0-0.258,0.12c0.258,0,0.516,0,0.772,0c0.129,0,0.259,0.116,0.388,0.229
		c0,0.118,0,0.351,0.129,0.583c-0.129,0.116-0.258,0.232-0.387,0.461c0.516-0.117,1.029-0.229,1.547-0.229
		c-0.387-0.582-0.773-1.165-1.16-1.627c0-0.229,0-0.461,0-0.697c0.773-0.697,1.547-1.394,2.447-1.973c0-1.742,0-3.48,0-5.11
		c-0.258-0.229-0.518-0.462-0.773-0.696c0.26-0.35,0.52-0.58,0.773-0.811c-0.646-0.465-0.9-0.701-0.9-1.394
		c0.127-0.349,0.256-0.695,0.516-0.93c0.26-0.347,0.518-0.577,0.771-0.813c0.258-0.231,0.516-0.461,0.902-0.583
		c-0.129-0.579-0.646-1.74,0.516-1.74c0-0.344,0.129-0.578,0.258-0.807c0-1.859,0-3.602,0-5.34c0-0.465-0.516-1.742-0.129-2.092
		c-0.129-0.23-0.258-0.465-0.258-0.699c0.387,0,0.258-0.232,0.645,0.119c0,0.35,0,0.813,0,1.277c0.131,0,0.26,0,0.389,0.119
		c-0.129,0.117-0.258,0.231-0.258,0.463c-0.131,0-0.131,0-0.131,0.116c0.26,1.974-0.129,4.53,0.518,6.501
		c1.031,0,0.771,0.813,0.9,1.507c0.771,0.702,1.549,1.394,2.318,2.208c0,0.234,0,0.582,0.129,0.932
		c-0.129,0.346-0.258,0.698-0.387,1.043c0.258,0.117,0.516,0.23,0.771,0.352c-0.129,0.348-0.26,0.694-0.387,1.042
		c-0.258,0-0.387,0-0.516,0.118c0,1.625,0,3.25,0.129,4.877c0,0,0,0,0,0.117c0,0.115,0,0.229,0,0.348
		c0.771,0.35,1.289,0.811,1.674,1.51c0,0.229,0,0.578,0.129,0.928c0.129-0.116,0.258-0.232,0.52-0.35c0-0.464-0.391-0.578,0-1.277
		c0.129-1.391,0.258-2.669,0.516-3.949c0.127,0,0.258,0,0.516,0c-0.129,0.581-0.258,1.28-0.258,1.975
		c0.129,0.699,0.258,1.391,0.385,2.09c0.133,0.232,0.262,0.463,0.391,0.697c-0.258,0-0.518,0-0.773,0.116
		c0,0.349,0.258,0.349,0.646,0.349c0.129,0.233,0.386,0.465,0.644,0.699c0,0.119,0,0.233,0.129,0.463
		c-0.258,0.461-0.771,0.931-0.258,1.392c0.129,0,0.258,0,0.387,0c0,0.7,0.261,0.7,0.903,0.929c0,0,0,0.119,0.129,0.232
		c-0.258,0.348-0.645,0.465-0.645,0.932c-0.261,0.229-0.519,0.461-0.647,0.695c-0.129,0.117-0.258,0.348-0.258,0.58
		c0.129,1.743,0.258,3.484,0.387,5.223c0.129,0.23,1.161,0.811,0.903,1.044c-0.258,0-0.647,0.231-0.387,0.462
		c0.129,0,0.258,0,0.516,0c0-0.117-0.258-0.23,0.129-0.23c0,0.35,1.029,0.582,1.287,0.582c-0.129,0.115-0.256,0.348-0.256,0.579
		c-0.131-0.12-0.131-0.12-0.131-0.12c-0.387,0.12-0.771,0.352-1.029,0.578c-0.258,0-0.387,0.125-0.516,0.234
		c0,0.232-0.133,2.556,0.387,2.09c0-0.114,0-0.23,0-0.23c0.129-0.117,0.645-0.58,0.898-0.35c5.65,0,16.689-1.146,21.906,0.232
		c0.129-0.116,0.258-0.116,0.387-0.116c2.566,1.385,4.039,6.771,7.4,5.692c0.055-1.93,0.113-3.862,0.223-5.793
		c-0.275-0.32-0.555-0.648-0.771-0.967c-0.225-0.068-0.225-0.068-0.334-0.771c-0.883-0.84-0.883-0.84-0.828-1.033
		c0.609-1.034,0.496-1.283,1.768-1.931c7.471-6.435,13.658-14.997,20.24-22.659c0-0.195,0-0.385,0-0.514
		c-0.74,0-0.369-0.459,0.109-0.645c-0.059-0.26-0.109-0.453-0.109-0.645c0.832,0.106,1.492-0.223,1.492,0.839
		c-0.166,0-0.277,0-0.389,0c-0.057,0.189-0.109,0.384-0.109,0.646c1.934,1.994,1.934,1.994,2.322,2.057
		c-0.111-0.51-0.223-1.026-0.277-1.541c0.389-0.316,0.775-0.58,1.219-0.839c0.109-0.512,0.273-0.967,0.441-1.417
		c-0.332-0.58-0.441-0.963-0.441-1.799c0.109-0.066,0.225-0.132,0.33-0.132c0.332-2.638,0.275-5.082,0.225-7.724
		c-0.607-0.646-0.607-0.646-0.721-1.096c0.166-0.125,0.33-0.255,0.496-0.385c0.059-0.195,0.111-0.316,0.225-0.451
		c0.221-1.479,0.496-1.867,1.438-2.768c-0.111-0.705-0.111-0.705,0.109-1.286c0.055-0.517,0.105-1.034,0.166-1.478
		c0.271-1.934,0.271-1.934,0.553-2.257c0.387,0.453,0.387,1.349,0.387,1.994c0.111,0.646,0.277,1.288,0.441,1.934
		c0,0.191,0.057,0.386,0.107,0.644c0.166,1.157,0.998,2.016,1.328,3.305c0.061,0.127,0.166,0.321,0.277,0.514
		c0.332,0.191,0.332,0.191,0.553,0.963c-0.273,0.13-0.553,0.262-0.83,0.453c-0.168,2.745-0.289,6.127,0.607,8.734
		c-0.166,0.258-0.275,0.512-0.389,0.836c-0.164,0.965,0.168,1.674,0.664,2.381c0.33,0.322,0.719,0.516,0.719,1.097
		c-0.275,0.193-0.498,0.386-0.719,0.64c0,1.668,0.057,3.43,0.164,5.088c1.852,1.612,8.658,7.98,10.617,7.98c0-1.093,0-2.188,0-3.217
		c0.166-0.066,0.332-0.129,0.498-0.195c-0.332-0.387-0.332-0.387-0.387-0.964c0.164-0.065,0.387-0.128,0.604-0.128
		c0.166-0.9,0.332-1.805,0.498-2.641c0.111-0.065,0.275-0.131,0.441-0.131c0.109,0.842,0.221,1.676,0.332,2.578
		c0.111,0.066,0.221,0.13,0.387,0.193c0.166,1.737,0.332,3.539,0.557,5.346c2.947,1.027,5.773,3.665,8.129,5.602
		c0.719,0,0.99-0.391,1.488-0.968c-0.273-0.453-0.273-0.453-0.221-0.772c0.275-1.669,0.275-1.669,0.332-6.695
		c0.166-0.063,0.389-0.126,0.607-0.126c0.057,2.253,0.109,4.505,0.168,6.821c0,0.384,0,0.772,0,1.225c0.107,0,0.221,0,0.385,0
		c0.057,1.031,0.111,2.061,0.166,3.089c0.441,0.067,0.885,0.13,1.328,0.191c-0.443,1.546-0.443,1.546-0.83,2.063
		c0.188,1.305-0.521,3.373,0.057,4.377c0.225-0.129,0.443-0.26,0.717-0.322c0.225,0.837-0.387,2.318-0.604,3.154
		c0.137,2.412-0.156,7.158,1.326,8.886c0.107-0.196,0.223-0.386,0.332-0.517c0.332,1.933,0.332,1.933,0.664,2.77
		c0.105,0,0.221,0,0.332,0c0,0.127,0,0.26,0,0.453c0.498,0.064,0.994,0.128,1.488,0.193c-0.053-0.453-0.053-0.902-0.053-1.351
		c0.109-0.066,0.273-0.128,0.441-0.128l0.043,0.594c0.141,0.002,0.287,0.011,0.473,0.063c0.389-0.962,0.693-0.978,1.48-0.964
		c0.307-2.439,0.504-4.855,0.547-7.416c0.164,0,0.332,0,0.553,0c0.223,2.414,0.375,4.082,0.486,5.359
		c0.354,0,0.416-0.128,0.801-0.128c0-0.511,0-1.033,0-1.48c0.223,0,0.441,0,0.664,0c0.773-2.259,2.047-4.444,4.146-5.408
		c0.607-1.929,0.496-2.771,0.496-4.763c0.443-0.579,0.443-0.579,1.328-2.896c-0.055-0.965-0.111-1.93-0.166-2.835
		c0.166,0,0.332,0,0.553,0c-0.055,1.028-0.107,2.06-0.107,3.153c0,0.387,0,0.773,0.055,1.158c1.051,1.42,0.994,2.125,0.719,3.994
		c0.771,1.285,0.332,2.188,1.771,2.834c1.492,1.609,1.492,1.609,2.543,3.281c0.168,0.449,0.33,0.965,0.553,1.477
		c1.881,0.195,1.992-1.09,2.934,1.287c0.164,0,0.334,0,0.553,0c0.057-0.389,0.109-0.773,0.168-1.092
		c0.551,0.129,1.104,0.257,1.715,0.451c0.053-0.965,0.109-1.865,0.166-2.768c0.166,0,0.33,0,0.551,0
		c0.059,1.932,0.059,1.932,0.277,2.379c0.438,0.131,0.883,0.26,1.381,0.389c0-0.58,0-1.158,0.057-1.736
		c-0.057-1.031-0.057-1.031,0.275-2.578c0.057-6.242,0.113-12.486,0.223-18.666c-0.107-0.129-0.166-0.258-0.223-0.383
		c-2.359-2.748-0.336-2.514,0.775-2.193c-0.436-15.08,0.688-11.615-0.227-17.123c-0.387-0.449-0.387-0.449-0.553-1.414
		c-0.455-0.801-0.135-2.658-0.055-3.606c1.07,0,2.137,0.065,3.207,0.065c0.168-0.065,0.332-0.129,0.553-0.193
		c0-0.259,0-0.516,0-0.771c-0.275-0.065-0.496-0.128-0.719-0.196c0-0.257,0-0.512,0-0.704c0.055-0.066,0.166-0.066,0.275-0.066
		c0-0.065,0-0.127,0.059-0.196c0-0.125,0-0.254,0-0.316c0.551-0.26,0.838-0.403,1.443-0.656c0.057-2.318,0.377-4.75,0.436-7.005
		c0.109,0,0.219,0,0.33,0c0,2.315,0.279,4.776,0.279,7.155c0.721,0.191,1.158,0.311,1.934,0.568c0,0.061,0,0.125,0,0.254
		c0,0.131,0,0.263,0,0.387c0,0.26,0,0.517,0,0.776c-0.332,0-0.664,0.066-0.996,0.128c-0.055,0.127-0.109,0.317-0.166,0.51
		c1.162,0.127,2.379,0.261,3.596,0.387c0.129,1.059,0.242,2.111,0.441,3.155c-0.166,0.964-0.277,1.61-0.719,2.38
		c-0.059,0.068-0.111,0.131-0.111,0.193c-0.719,0.84-0.33,13.517-0.387,16.285c2.193,0,1.16,2.063,0.553,3.479
		c0,6.169,0,12.44,0,18.666c0.166,0.193,0.334,0.449,0.498,0.707c-0.223,0.258-0.223,0.258-0.223,0.77c0,0.387,0,0.84,0,1.289
		c0,0.122,0.057,0.256,0.109,0.451c0.387-0.127,0.83-0.195,1.273-0.258c0,0.127,0,0.258,0,0.451c0.221,0,0.494,0,0.77,0
		c0-0.193,0-0.32,0-0.451c1.512,0.586,2.572,1.092,4.201,1.092c0-0.193,0-0.32,0-0.453c0.609,0.128,1.271,0,1.549-0.644
		c0.166,0.192,0.332,0.386,0.498,0.644c0.939,0.064,0.939,0.064,1.271,0.323c0.17-0.603,0.18-0.69,0.771-0.515
		c0-0.194,0-0.386,0-0.519c2.27,0.456,2.27,0.456,3.318,0.324c0-0.324,0-0.644,0-0.901c0.221,0,0.439,0,0.717,0
		c0.057,0.322,0.111,0.71,0.168,1.096c0.166,0,0.33,0,0.553,0c0-0.26,0-0.452,0-0.645c0.109-0.32,0.223-0.58,0.389-0.84
		c0-0.125,0-0.193,0-0.256c0.166,0,0.332,0,0.553,0c0.057-1.285,0.111-2.576,0.166-3.862c-0.109,0-0.223,0-0.332,0
		c0.166-1.612,0.389-3.159,0.605-4.699c0.059,0.583,0.168,1.159,0.277,1.735c1.328-0.896,0.941-2.893,0.83-4.438
		c-0.059-0.322-0.059-0.646-0.059-0.964c0.059-0.068,0.17-0.132,0.275-0.196c0.166-0.709,0.389-1.354,0.609-1.996
		c0.111,0.066,0.221,0.127,0.387,0.195c0.057,0.834,0,1.223,0.498,1.801c0.057,1.676,0.109,3.412,0.221,5.15
		c0.225,0.066,0.5,0.129,0.773,0.191c0-0.51,0-1.029,0-1.479c0.111,0,0.221,0.068,0.387,0.126c0.166,2.515,0.059,4.959-0.055,7.404
		c0.111,0,0.221,0,0.387,0c0.059-1.16,0.111-2.32,0.166-3.478c0.166,0,0.332,0,0.555,0c0.275,2.317,0.166,4.249,1.271,6.183
		c0.109-0.193,0.109-0.193,2.434-0.128c0-0.258,0.057-0.45,0.111-0.644c0.551,0,0.605,0.257,0.994,0.705c0.498,0,0.996,0,1.549,0
		c0.828-1.607,1.051-4.315,1.217-6.116c0.166,0,0.33,0,0.553,0c-0.055,0.839-0.109,1.032,0.166,1.739
		c0.166,1.224,0.332,2.448,0.555,3.672c0.055,0.123,0.107,0.254,0.166,0.447c0.273,0.125,0.607,0.258,0.938,0.386
		c1.824,0,3.648,0,5.529,0c0.111-0.063,0.221-0.128,0.387-0.128c0-0.191,0-0.386,0-0.512c0.223,0,0.498,0,0.775,0
		c0.109,1.226,0.221,2.445,0.33,3.664c0.166,0,0.332,0,0.555,0c0,0.066,0,0.195,0,0.322c0.828,0,1.713,0,2.6,0
		c0.057-0.449,0.164-0.9,0.273-1.35c0.277-0.068,0.553-0.068,0.83-0.068c0.055,0.392,0.107,0.771,0.166,1.16c1.104,0,2.27,0,3.43,0
		c0-0.066,0-0.066,0-0.066c0-0.195,0-0.195,0.662-0.063c0.223,1.221,0.498,2.445,0.773,3.667c0.166,0.064,0.332,0.128,0.496,0.259
		c2.385-1.053-1.303,0.386,1.371,0.386c0.389,0,0.773,0.063,1.16,0.126c0.719,0.26,1.328,0.322,2.156,0.322
		c0-0.771,0-1.481,0.055-2.189c0.443-0.063,0.887-0.063,1.328-0.063c0,0.388,0,0.835,0,1.284c0.553,0,1.105,0,1.658,0
		c0.389-0.32,0.389-0.32,1.27-0.516c0.391-0.189,0.775-0.321,1.219-0.449c-0.057-0.386-0.111-0.773-0.111-1.092
		c0.111,0,0.223,0,0.391,0c0.057,0.318,0.107,0.706,0.164,1.092c0.109,0,0.275,0,0.441,0c0-0.066,0.055-0.126,0.111-0.194
		c0-0.706,0.055-1.354,0.107-1.995c0.166-0.066,0.332-0.129,0.553-0.195c1.271-1.027,2.211-0.577,3.65-0.445
		c0.166-0.322,0.33-0.646,0.498-0.904c0.33-0.064,0.717-0.126,1.104-0.126c0,1.093,0,2.255,0.059,3.411
		c3.83,1.398,3.674-0.604,5.836-0.32c-0.111,0.578-0.111,0.578,0.055,1.094c0.057,0,0.166,0.064,0.277,0.125
		c0.184-1.51,0.43-2.938,0.719-4.441c0-0.125,0-0.256,0-0.318c0.828-0.259,0.828-0.259,2.377-0.259
		c-0.055,0.194-0.111,0.388-0.166,0.577c0.166,0.132,0.33,0.262,0.553,0.451c0.109,0,0.223,0,0.391,0
		c1.334-2.736,2.332-5.595,3.592-8.367c-0.055-0.068-0.109-0.068-0.166-0.068c0.059-0.965,0.166-1.93,0.277-2.83
		c0.166,0,0.328,0,0.553,0c0,0.641,0,1.351,0,2.059c1.521-0.207,3.094-0.646,4.588-0.771c0.111-0.387,0.225-0.771,0.391-1.091
		c2.119-0.157,4.42,0.276,6.412-0.389c-0.105-0.257-0.166-0.515-0.223-0.772c0.773-0.254,0.773-0.254,1.549-0.836h0.037
		l0.131-21.562c-0.109-0.647-0.996-0.321-0.996-1.353c0.275-0.129,0.555-0.26,0.887-0.321c0.223-0.708,0.439-1.415,0.664-2.124
		c-0.061-0.771-0.109-1.545-0.168-2.251c-0.719-0.194-0.662-0.967,0-1.163c0.059-0.127,0.107-0.258,0.168-0.318
		c0-0.707,0.057-1.353,0.109-1.993c0.273-0.067,0.553-0.132,0.828-0.132c-0.059,0.193-0.111,0.455-0.111,0.709
		c0.166,0.449,0.332,0.897,0.555,1.416c0.225,0.128,0.441,0.318,0.664,0.515c2.793-0.931,2.145-0.681,3.648-4.188
		c0.471-1.777,1.129-6.73,1.215-8.753c-0.992-1.159-1.604-1.288-0.553-2.513c0-0.385,0.059-0.771,0.109-1.158
		c0-0.065,0-0.125,0-0.193c0-0.125,0-0.258,0-0.316c-0.441-0.456-1.051-0.649-1.051-1.42c0.389-0.191,0.773-0.387,1.219-0.51
		c0,0,0.055,0,0.107,0c0.111-0.839,1.105-2.192,1.713-2.514c0.498-1.867,0.061-4.506-0.105-6.438
		c0.105-0.125,0.221-0.257,0.385-0.383c0.557-1.096,0.996-2.125,2.047-2.836c0-0.772,0.057-1.544,0.109-2.251
		c-0.109-0.067-0.223-0.132-0.275-0.193c-0.055-1.095-0.055-1.095,0.223-2.257c0.166,0,0.332,0,0.498,0.064
		c0.223,0.646,0.605,2.123,0.166,2.643c-0.107,2.768,1.271,1.672,2.047,3.729c0.33,0.259,0.33,0.259,0.439,0.647
		c0.055,0.066,0.111,0.129,0.223,0.195c-0.107,0.19-0.223,0.384-0.273,0.641c-0.059,1.737-0.111,3.477-0.166,5.278
		c0.885,0.772,0.885,0.772,1.051,1.286c0.166,0.321,0.33,0.645,0.553,0.965c0.555,0.128,1.105,0.26,1.713,0.389
		c0,0.258,0.059,0.514,0.111,0.771c-0.332,0.193-0.609,0.385-0.887,0.58c0,0.512,0,1.029,0,1.611c0.168,0,0.168,0,0.555,1.67
		c-0.932,1.807,0.127,9.746,0.941,11.717c0.221,0,0.438,0.064,0.66,0.124c0.059,0.39,0.109,0.846,0.166,1.291
		c1.191,1.786,1.867,2.146,3.596,3.221c0-0.583,0-1.163,0-1.741c-0.555-1.223-0.555-1.223-0.555-1.805c0-0.12,0-0.191,0.059-0.255
		c0.221-1.032,0.107-2.317,1.27-2.19c0,0.582,0.057,1.224,0.109,1.869c0.605,0.261,0.605,0.261,0.771,0.576c0,0.133,0,0.262,0,0.387
		c-0.166,0.262-0.273,0.581-0.387,0.904c-0.055,0.578-0.109,1.154-0.166,1.802c0.607,0.453,0.885,1.607,1.105,2.446
		c0.221,0.128,0.496,0.262,0.771,0.385c-0.332,0.516-0.332,0.516-0.885,0.84c0,0.127,0,0.318,0,0.513c0.111,0,0.221,0,0.387,0
		c0,0.128,0,0.261,0,0.454c-0.223,0-0.387,0-0.553,0c0.055,5.923,0.111,11.847,0.166,17.77c0.166,0,0.166,0,0.166-1.676
		c0.107,0,0.221,0,0.387,0c0,1.676,0,3.413,0,5.146c0.111,0,0.223,0,0.389,0c0,2.938,0.166,5.053,0.166,0c1.938,0,3.926,0,5.916,0
		c0,0.195,0,0.387,0,0.65c1.217,0,4.227,20.499,5.227,20.835c-0.111-0.323-0.166-0.581-0.225-0.837
		c0.389-0.13,0.389-0.13,1.219,0.127c1.104-1.996,5.143-4.504,6.744-5.797c0.111-0.193,0.223-0.318,0.332-0.451
		c-0.057-0.192-0.109-0.32-0.166-0.451c0.125-0.021,0.166-0.723,0.166-2.191c0.109-0.063,0.223-0.063,0.389-0.063
		c0.109,0,0.221,0,0.389,0c0.131,1.391,0.26,2.201,0.717,2.254c2.371-0.396,4.828-1.803,7.574-1.803
		c0.109-0.26,0.109-0.26,0.885-0.318c1.105-0.967,0.113-2.189,0.723-3.477c0.605,0,0.605,2.063,0.605,2.51
		c0.109,0,1.525,1.469,2.104,1.738c0.938,0,1.881-0.322,2.32,0.836c0.057,0,0.109,0,0.168,0c1.697,0.115,3.033,0.057,4.809,0
		c0-0.191-0.021-1.707-0.021-1.836l26.543-0.006l0.002,96.352h0.004v-0.009h0.008V254.639z M434.793,122.495
		c-1.391-0.305-1.438,0.232-1.77,0.385c-0.785,1.695,0.174,3.116,1.604,2.898C435.479,125.372,435.926,124.938,434.793,122.495
		L434.793,122.495z M385.575,124.966c0-0.967-0.164-1.031,0.775-1.289c-0.109,0.386-0.166,0.84-0.225,1.289
		C385.909,124.966,385.743,124.966,385.575,124.966L385.575,124.966z M370.327,95.073c-0.166-0.066-0.453-3.323-0.619-3.389
		c0.111-1.414,0.111-1.414,0.332-1.996c0.111,0,0.275,0,0.443,0C370.538,90.526,370.657,93.719,370.327,95.073L370.327,95.073z
		 M84.494,127.317c-1.017-1.086-1.072-3.502-0.345-4.809c-0.344-2.174,5.719-3.222,7.407,0c0.353,0.264,0.313,4.099-0.689,4.809
		C88.573,129.975,84.494,127.499,84.494,127.317L84.494,127.317z M201.964,147.684c0.128,0,0.257,0,0.515,0
		c0,0.35,0,0.702,0.129,1.163C201.737,148.847,201.438,148.159,201.964,147.684L201.964,147.684z M85.428,123.651
		c1.902-1.711,2.15-3.158,4.922,0.563C89.79,128.725,85.428,127.047,85.428,123.651z M294.999,148.847
		c-0.129-0.233-0.385-0.348,0-0.348C294.999,148.614,294.999,148.729,294.999,148.847z"/>
</g>
</svg>
