<?xml version="1.0" encoding="utf-8"?>
<!-- Generator: Adobe Illustrator 21.0.0, SVG Export Plug-In . SVG Version: 6.00 Build 0)  -->
<svg version="1.1" id="Capa_1" xmlns="http://www.w3.org/2000/svg" xmlns:xlink="http://www.w3.org/1999/xlink" x="0px" y="0px"
	 viewBox="0 0 44.9 44.9" style="enable-background:new 0 0 44.9 44.9;" xml:space="preserve">
<style type="text/css">
	.st0{fill:#FFFFFF;}
</style>
<g>
	<g>
		<path class="st0" d="M19,21c0.3-0.4,0.1-1.7,0.1-1.7C9.7,16,2.6,12,3,10.3c0.2-0.8,0.5-1.2,0.7-1.2C4.1,8.9,5,9.4,6.2,10.2
			l1.9-2.3C7.2,7.3,5,5.5,2.7,6.2C1.8,6.5,0.6,7.3,0.1,9.6c-1.3,5.3,11.4,10.1,18.2,12.5C18.3,22.1,18.8,21.4,19,21z"/>
		<path class="st0" d="M41.1,10.6c-0.3-0.4-0.6-0.9-1-1.3C36.4,4.9,30.7,2,24.4,2c0,0,0,0,0,0c0,0,0,0,0,0c0,0,0,0-0.1,0
			C18.1,2,12.5,4.9,8.7,9.4c-0.3,0.4-0.7,0.8-1,1.3c-0.2,0.3-0.5,0.7-0.7,1c0.4,0.3,0.9,0.6,1.4,0.9c0.2-0.3,0.4-0.6,0.6-0.9
			c1.3,0.8,2.7,1.6,4.4,2.2c-0.1,0.3-0.2,0.7-0.2,1c0.5,0.2,1,0.4,1.6,0.7c0.1-0.4,0.2-0.8,0.3-1.1c2.6,0.8,5.5,1.3,8.6,1.3v2.1
			l0.1,0.1l0.1,0.9l0.2,1.3l1.2,0.3v-4.7c0.6,0,1.2-0.1,1.8-0.1l0.4-1.2l0.2-0.5c-0.8,0.1-1.6,0.1-2.4,0.1V3.7
			c3.4,0.5,6.3,4.1,8,9.1c-0.8,0.2-1.7,0.4-2.5,0.6c0.6,0.3,1.1,0.7,1.5,1.4c0.5-0.1,1-0.2,1.5-0.4c0.6,2.4,1,5,1,7.8h-2.6
			c0,0.2-0.1,0.3-0.1,0.5c1,0.4,2.2,0.9,2.5,1c0.8,0.3,1.4,0.8,1.7,1.4c0-0.4,0.1-0.8,0.1-1.2h4c-0.1,0.5-0.1,1-0.2,1.5
			c0.3-0.1,0.5-0.4,0.6-0.9c0.1-0.3,0.1-0.5,0.1-0.7h2.3c-0.3,3.4-1.5,6.6-3.4,9.3c-1.3-0.9-2.8-1.6-4.5-2.2c0.1-0.3,0.2-0.7,0.2-1
			c-0.5,0.4-1.2,0.6-2,0.6c-0.3,0-0.6,0-0.8-0.1l-0.1,0c-0.2,0-0.5,0-2.2-0.6c0.2-0.3,0.4-0.6,0.7-1V28c0.8,0.3,1.5,0.5,1.6,0.5
			c0.4,0,1.6,0.4,1.9-0.9c0.3-1.3-0.5-1.8-1-2c-0.3-0.1-1.5-0.6-2.5-1v-1.7l-0.6,1.5c-0.5-0.2-0.9-0.4-0.9-0.4s1.3-7,0.9-7.9
			s-1.4-1.1-1.4-1.1l-2.8,7.8l-3-0.8l0,0l-1.3-0.3l-0.4-2.6l-1.4-0.9c0,0,0.1,2.2-0.1,3.3c0,0.2-0.1,0.4-0.2,0.5
			c0,0-0.1,0.1-0.1,0.2c-0.1,0.2-0.4,0.5-0.6,0.8c0,0,0,0,0,0c-0.1,0.1-0.2,0.3-0.4,0.4c0,0,0,0,0,0c-0.1,0.1-0.2,0.2-0.3,0.4
			c-0.4,0.4-0.7,0.7-0.7,0.7l1.2,0.9l2-1.6h0l0.5-0.4l0.7,0.4l0,0l1.9,0.9l0.9,0.5l0,0l0.2,0.1L22.4,33c0,0,1,0.9,1.8,0.3
			c0.8-0.6,4-6.4,4-6.4s0.6,0.2,1.3,0.5l-0.2,0.4c0.1,0,0.2,0,0.3,0v1.8c-0.1,0-0.1-0.1-0.2-0.1c-0.1,0-0.2,0-0.3,0
			c-0.3,0.6-0.6,1.1-0.9,1.6c1.8,0.2,3.5,0.5,5.1,1c-1.7,5-4.6,8.6-8,9.1V35c-0.5,0.3-1.1,0.5-1.7,0.5v5.6c-3.4-0.5-6.4-4-8.1-9.1
			c1.7-0.5,3.6-0.9,5.6-1.1l0.7-1.7c-2.4,0.2-4.7,0.6-6.8,1.2c-0.5-2-0.9-4.2-1-6.5h1.7l0.4-0.4c-1.4-0.5-2.7-0.9-3.9-1.4
			c0,0,0,0.1,0,0.1H5.7c0-1,0.1-2.1,0.3-3c-0.5-0.3-1.1-0.6-1.5-0.9C4.1,19.7,4,21,4,22.4c0,4.4,1.4,8.5,3.8,11.8
			c0.3,0.4,0.6,0.9,1,1.3c3.7,4.5,9.3,7.3,15.6,7.4c0,0,0,0,0.1,0c0,0,0,0,0,0c0,0,0,0,0,0c6.3,0,11.9-2.9,15.7-7.4
			c0.3-0.4,0.7-0.8,1-1.3c2.4-3.3,3.8-7.4,3.8-11.8C44.9,18,43.5,14,41.1,10.6z M13.9,12.3c-1.4-0.5-2.7-1.2-3.9-1.9
			c2.2-2.6,5.1-4.6,8.4-5.7C16.6,6.5,15,9.1,13.9,12.3z M23.6,14.1c-2.9-0.1-5.7-0.5-8.1-1.2c1.7-5.1,4.6-8.6,8.1-9.1V14.1z
			 M5.7,23.9h6.6c0.1,2.5,0.5,4.9,1.1,7.1c-1.6,0.6-3.1,1.4-4.4,2.2C7.2,30.5,6,27.4,5.7,23.9z M10.1,34.5c1.1-0.7,2.4-1.4,3.9-1.9
			c1.1,3.2,2.6,5.8,4.5,7.6C15.2,39.1,12.3,37.1,10.1,34.5z M30.3,40.3c1.9-1.8,3.5-4.5,4.6-7.7c1.5,0.5,2.8,1.2,3.9,1.9
			C36.5,37.1,33.6,39.2,30.3,40.3z M30.3,4.6c3.4,1.1,6.3,3.1,8.5,5.8c-1,0.6-2.1,1.2-3.3,1.7c-0.1,0-0.1,0-0.1,0l0,0.1
			c-0.2,0.1-0.3,0.1-0.5,0.2C33.7,9.1,32.2,6.4,30.3,4.6z M36.4,22.3c0-3-0.4-5.8-1.1-8.4c1.7-0.6,3.2-1.4,4.5-2.2
			c2.1,3,3.4,6.7,3.4,10.6H36.4L36.4,22.3z"/>
	</g>
</g>
</svg>
