<?xml version="1.0" encoding="utf-8"?>
<!-- Generator: Adobe Illustrator 16.0.0, SVG Export Plug-In . SVG Version: 6.00 Build 0)  -->
<!DOCTYPE svg PUBLIC "-//W3C//DTD SVG 1.1//EN" "http://www.w3.org/Graphics/SVG/1.1/DTD/svg11.dtd">
<svg version="1.1" id="Capa_1" xmlns="http://www.w3.org/2000/svg" xmlns:xlink="http://www.w3.org/1999/xlink" x="0px" y="0px"
	 width="595.281px" height="604px" viewBox="0 115.445 595.281 604" enable-background="new 0 115.445 595.281 604"
	 xml:space="preserve">
<g>
	<path fill="#FFFFFF" d="M138.899,482.279h138.898v-99.214H138.899V482.279z M158.741,462.436v-29.764h99.213v29.764H158.741z
		 M257.955,402.908v9.922h-99.213v-9.922H257.955z"/>
	<path fill="#FFFFFF" d="M138.899,521.965V641.02h138.898V521.965H138.899z M198.427,541.807v29.764h-39.686v-29.764H198.427z
		 M158.741,591.414h39.686v29.764h-39.686V591.414z M218.27,621.177v-29.764h39.685v29.764H218.27z M257.955,571.571H218.27v-29.764
		h39.685V571.571z"/>
	<path fill="#FFFFFF" d="M317.482,482.279h138.9v-99.214h-138.9V482.279z M337.326,462.436v-9.921h99.213v9.921H337.326z
		 M436.539,402.908v29.765h-99.213v-29.765H436.539z"/>
	<path fill="#FFFFFF" d="M585.359,601.335c-5.486,0-9.922,4.445-9.922,9.922v9.921h-9.92v-9.921c0-5.477-4.436-9.922-9.922-9.922
		s-9.922,4.445-9.922,9.922v9.921h-9.922v-200.45c5.17,2.321,10.646,3.602,16.133,3.602c10.646,0,21.223-4.326,29.039-12.739
		c7.541-8.116,11.361-19.099,10.488-30.142c-0.883-11.032-6.391-21.281-15.102-28.106l-251.664-196.85l-27.006-25.071
		l-26.361,24.525l-252.3,197.396c-8.721,6.825-14.227,17.074-15.1,28.106c-0.873,11.043,2.946,22.025,10.487,30.142
		c11.846,12.759,29.972,15.974,45.172,9.147v200.45h-9.932v-9.921c0-5.477-4.435-9.921-9.921-9.921
		c-5.487,0-9.921,4.444-9.921,9.921v9.921h-9.921v-9.921c0-5.477-4.435-9.921-9.921-9.921S0,605.79,0,611.266v89.292
		c0,5.477,4.435,9.922,9.921,9.922s9.921-4.445,9.921-9.922v-9.921h9.921v9.921c0,5.477,4.435,9.922,9.921,9.922
		c5.486,0,9.921-4.445,9.921-9.922v-9.921h9.921v19.843h257.954h138.9h79.369v-19.843h9.922v9.921c0,5.477,4.436,9.922,9.922,9.922
		s9.922-4.445,9.922-9.922v-9.921h9.92v9.921c0,5.477,4.436,9.922,9.922,9.922s9.922-4.445,9.922-9.922v-89.292
		C595.281,605.78,590.845,601.335,585.359,601.335z M28.891,398.076c-3.82-4.117-5.675-9.465-5.229-15.061
		c0.446-5.595,3.115-10.586,7.55-14.048l252.935-197.931l13.503-12.551l14.129,13.086l252.299,197.396
		c4.426,3.462,7.104,8.453,7.551,14.048c0.445,5.596-1.42,10.953-5.229,15.061c-7.025,7.561-18.465,8.513-26.648,2.213l-4-3.075l0,0
		L297.64,213.669L63.397,394.237l-0.01,0.01l-7.848,6.042C47.345,406.589,35.915,405.636,28.891,398.076z M19.843,670.785V641.02
		h9.921v29.765H19.843z M49.606,670.785V641.02h9.921v29.765H49.606z M337.326,690.627V541.807h99.213v148.819H337.326z
		 M515.91,690.627h-59.527V521.965h-138.9v168.662H79.371V406.966L297.64,238.71l218.27,168.256V690.627z M535.751,670.785V641.02
		h9.922v29.765H535.751z M565.517,670.785V641.02h9.92v29.765H565.517z"/>
</g>
</svg>
