<?xml version="1.0" encoding="utf-8"?>
<!-- Generator: Adobe Illustrator 16.0.0, SVG Export Plug-In . SVG Version: 6.00 Build 0)  -->
<!DOCTYPE svg PUBLIC "-//W3C//DTD SVG 1.1//EN" "http://www.w3.org/Graphics/SVG/1.1/DTD/svg11.dtd">
<svg version="1.1" id="Capa_1" xmlns="http://www.w3.org/2000/svg" xmlns:xlink="http://www.w3.org/1999/xlink" x="0px" y="0px"
	 width="595.281px" height="588px" viewBox="0 126.445 595.281 588" enable-background="new 0 126.445 595.281 588"
	 xml:space="preserve">
<g>
	<path fill="#FFFFFF" d="M589.945,135.905c-3.307-2.006-7.43-2.095-10.836-0.298l-182.256,96.491l-182.244-96.491
		c-0.143-0.077-0.309-0.099-0.452-0.165c-0.529-0.254-1.069-0.441-1.621-0.606c-0.309-0.088-0.606-0.188-0.915-0.254
		c-0.606-0.121-1.224-0.165-1.852-0.187c-0.275-0.012-0.551-0.045-0.838-0.033c-0.595,0.033-1.179,0.143-1.764,0.275
		c-0.331,0.066-0.661,0.11-0.981,0.209c-0.077,0.022-0.154,0.022-0.221,0.045L7.54,201.033C3.032,202.532,0,206.744,0,211.495
		v474.02c0,3.538,1.698,6.868,4.586,8.951c1.896,1.355,4.156,2.072,6.438,2.072c1.168,0,2.348-0.188,3.483-0.573l194.524-64.841
		l183.622,75.611c0.154,0.066,0.33,0.044,0.484,0.099c1.213,0.431,2.447,0.728,3.715,0.728c0.992,0,1.975-0.165,2.934-0.43
		c0.309-0.088,0.594-0.231,0.902-0.342c0.441-0.165,0.904-0.286,1.324-0.507l187.402-99.213c3.605-1.907,5.865-5.667,5.865-9.745
		V145.352C595.281,141.483,593.251,137.9,589.945,135.905z M22.047,219.443l176.379-58.79v297.553
		c-4.74,0.859-9.414,1.829-13.934,3.021c-5.887,1.565-9.392,7.595-7.827,13.481c1.312,4.938,5.765,8.202,10.649,8.202
		c0.926,0,1.885-0.122,2.833-0.364c2.646-0.705,5.534-1.059,8.279-1.632v130.521L22.047,670.214V219.443z M220.474,477.828
		c3.539-0.275,6.967-0.728,10.594-0.805c6.085-0.133,10.914-5.171,10.792-11.256c-0.132-6.008-5.038-10.792-11.024-10.792
		c-0.077,0-0.166,0-0.243,0c-3.417,0.077-6.779,0.265-10.12,0.496V163.663l165.355,87.539v233.637
		c-7.871-0.342-15.873-1.268-24.264-2.888c-5.996-1.18-11.762,2.744-12.92,8.72c-1.156,5.975,2.756,11.762,8.732,12.919
		c9.766,1.896,19.246,2.822,28.463,3.187V680.08l-165.367-68.094V477.828z M573.232,590.677l-165.355,87.539V505.586
		c4.102-1.863,6.836-6.053,6.473-10.804c-0.32-4.123-2.967-7.43-6.473-9.051V251.202l165.355-87.539V590.677z"/>
	<path fill="#FFFFFF" d="M121.261,222.518c-30.392,0-55.119,24.727-55.119,55.118c0,26.623,18.972,48.88,44.095,54.006v23.16
		c0,6.097,4.938,11.024,11.023,11.024s11.024-4.928,11.024-11.024v-23.16c25.123-5.126,44.095-27.383,44.095-54.006
		C176.379,247.245,151.653,222.518,121.261,222.518z M121.261,310.708c-18.233,0-33.071-14.838-33.071-33.071
		c0-18.232,14.838-33.07,33.071-33.07s33.071,14.838,33.071,33.07C154.332,295.87,139.494,310.708,121.261,310.708z"/>
	<path fill="#FFFFFF" d="M496.839,428.364c1.322,0.519,2.678,0.75,4.012,0.75c4.41,0,8.566-2.657,10.273-7.011
		c5.182-13.218,9.338-28.145,12.381-44.36c1.123-5.975-2.822-11.729-8.809-12.864c-6.02-0.992-11.74,2.833-12.865,8.818
		c-2.777,14.86-6.559,28.441-11.232,40.38C488.384,419.732,491.171,426.137,496.839,428.364z"/>
	<path fill="#FFFFFF" d="M141.159,479.834c-13.306,8.345-25.299,18.796-35.662,31.087c-3.925,4.652-3.329,11.608,1.323,15.532
		c2.072,1.742,4.597,2.591,7.099,2.591c3.142,0,6.25-1.334,8.433-3.913c8.885-10.539,19.148-19.501,30.514-26.611
		c5.159-3.241,6.713-10.043,3.483-15.202S146.307,476.593,141.159,479.834z"/>
	<path fill="#FFFFFF" d="M95.102,545.249c-5.534-2.535-12.082-0.144-14.628,5.391c-11.311,24.539-14.11,44.349-14.231,45.186
		c-0.827,6.03,3.384,11.575,9.414,12.402c0.507,0.077,1.025,0.11,1.521,0.11c5.413,0,10.131-3.991,10.914-9.492
		c0.022-0.176,2.546-17.604,12.402-38.957C103.039,554.344,100.625,547.806,95.102,545.249z"/>
	<path fill="#FFFFFF" d="M445.611,495.124c1.688,0,3.406-0.386,5.006-1.201c14.242-7.287,26.799-17.627,37.303-30.712
		c3.814-4.752,3.055-11.696-1.697-15.5c-4.74-3.781-11.686-3.042-15.498,1.698c-8.555,10.659-18.697,19.026-30.15,24.88
		c-5.424,2.778-7.574,9.414-4.795,14.838C437.74,492.93,441.609,495.124,445.611,495.124z"/>
	<path fill="#FFFFFF" d="M321.562,469.802c-4.861-2.039-7.705-3.45-7.893-3.55c-0.717-0.363-1.479-0.661-2.26-0.859
		c-11.939-3.065-23.702-5.49-34.979-7.21c-6.008-0.948-11.641,3.208-12.567,9.227c-0.915,6.02,3.219,11.652,9.238,12.567
		c10.208,1.565,20.868,3.748,31.714,6.504c1.479,0.705,4.301,2.039,8.246,3.682c1.389,0.585,2.834,0.85,4.244,0.85
		c4.311,0,8.412-2.536,10.176-6.769C329.83,478.599,327.183,472.139,321.562,469.802z"/>
	<path fill="#FFFFFF" d="M517.265,343.018c0.242,0.011,0.475,0.022,0.717,0.022c5.766,0,10.615-4.476,10.99-10.329
		c0.684-10.594,1.025-21.806,1.025-33.292c0-3.825-0.033-7.705-0.109-11.663c-0.111-6.096-5.402-10.726-11.223-10.825
		c-6.086,0.11-10.936,5.137-10.826,11.222c0.066,3.825,0.111,7.585,0.111,11.267c0,11.023-0.33,21.75-0.98,31.892
		C506.583,337.385,511.191,342.622,517.265,343.018z"/>
	<path fill="#FFFFFF" d="M91.419,439.762c2.15,2.15,4.972,3.23,7.794,3.23s5.644-1.08,7.794-3.23l14.253-14.253l14.254,14.253
		c2.149,2.15,4.972,3.23,7.793,3.23c2.822,0,5.644-1.08,7.794-3.23c4.31-4.31,4.31-11.277,0-15.587l-14.254-14.254l14.254-14.254
		c4.31-4.311,4.31-11.277,0-15.588c-4.311-4.31-11.277-4.31-15.587,0l-14.254,14.254l-14.253-14.254
		c-4.311-4.31-11.277-4.31-15.588,0c-4.31,4.311-4.31,11.277,0,15.588l14.254,14.254l-14.254,14.254
		C87.109,428.474,87.109,435.453,91.419,439.762z"/>
</g>
</svg>
