<?xml version="1.0" encoding="utf-8"?>
<!-- Generator: Adobe Illustrator 16.0.0, SVG Export Plug-In . SVG Version: 6.00 Build 0)  -->
<!DOCTYPE svg PUBLIC "-//W3C//DTD SVG 1.1//EN" "http://www.w3.org/Graphics/SVG/1.1/DTD/svg11.dtd">
<svg version="1.1" id="Layer_1" xmlns="http://www.w3.org/2000/svg" xmlns:xlink="http://www.w3.org/1999/xlink" x="0px" y="0px"
	 width="595.281px" height="494px" viewBox="0 173.445 595.281 494" enable-background="new 0 173.445 595.281 494"
	 xml:space="preserve">
<g>
	<g>
		<path fill="#FFFFFF" d="M590.32,249.794l-49.607-37.205c-3.721-2.803-8.756-3.249-12.973-1.166
			c-4.217,2.108-6.869,6.399-6.869,11.087v111.193c-42.289-12.774-103.852-18.876-153.559-21.752
			c-1.266-0.992-2.729-1.762-4.391-2.208c-3.398-0.917-6.846-0.273-9.672,1.464c-23.688-1.19-43.531-1.612-55.609-1.786v-31.104
			l44.646-33.484c3.125-2.331,4.961-6.027,4.961-9.921s-1.836-7.59-4.961-9.921l-49.607-37.205
			c-3.721-2.803-8.781-3.25-12.972-1.166c-4.217,2.107-6.87,6.399-6.87,11.087v111.714c-12.079,0.174-31.898,0.62-55.56,1.762
			c-2.828-1.712-6.275-2.356-9.673-1.438c-1.662,0.446-3.125,1.215-4.39,2.183c-60.668,3.521-139.097,11.807-178.411,31.202v-40.007
			l44.646-33.485c3.125-2.331,4.961-6.026,4.961-9.921c0-3.894-1.836-7.59-4.961-9.921L19.842,212.59
			c-3.72-2.803-8.756-3.249-12.972-1.166C2.654,213.532,0,217.823,0,222.51v148.82c0,1.241,0.099,2.432,0.322,3.622l24.48,219.608
			c0,61.313,249.795,62.008,260.436,62.008s260.435-0.694,260.361-60.619l24.555-220.998c0.223-1.191,0.322-2.406,0.322-3.597
			c0-0.024,0-0.024,0-0.024c0-11.385-9.426-20.661-24.803-28.226v-39.983l44.621-33.485c3.15-2.331,4.986-6.026,4.986-9.921
			S593.445,252.126,590.32,249.794z M297.64,222.51l16.543,12.402l-16.543,12.401V222.51z M24.803,247.314l16.543,12.401
			l-16.543,12.402V247.314z M368.503,336.481c39.139,2.307,72.201,6.126,98.84,10.591l-42.166,52.707
			c-0.396,0.521-0.545,1.116-0.867,1.687c-0.744,0.075-1.488,0.174-2.258,0.248c-2.678,0.298-5.258,0.595-8.012,0.893
			c-4.539,0.446-9.352,0.843-14.113,1.266c-2.803,0.247-5.482,0.521-8.357,0.744c-5.012,0.396-10.32,0.72-15.576,1.065
			c-2.879,0.199-5.656,0.396-8.607,0.571c-5.482,0.322-11.236,0.57-16.941,0.818c-0.422,0.024-0.818,0.05-1.215,0.05
			L368.503,336.481z M285.238,334.126c20.412,0,39.685,0.396,57.867,1.116l-19.844,72.749c-0.445,0-0.867,0.024-1.289,0.05
			c-2.604,0.074-5.109,0.173-7.764,0.224c-9.398,0.173-19.048,0.272-28.969,0.272c-10.045,0-19.843-0.099-29.342-0.272
			c-2.977-0.051-5.729-0.174-8.656-0.248l-19.843-72.773C245.578,334.522,264.85,334.126,285.238,334.126z M202.023,336.457
			l19.272,70.665c-27.829-1.215-52.881-3.175-75.08-5.63c-0.322-0.571-0.471-1.216-0.893-1.762l-42.141-52.658
			C129.846,342.609,162.809,338.763,202.023,336.457z M25.15,371.727c3.622-5.604,21.034-12.822,50.996-19.445
			c0.348,0.67,0.521,1.364,1.017,1.984l34.179,42.712C59.404,389.041,29.665,378.747,25.15,371.727z M347.248,630.154
			c-19.248,0.991-39.811,1.587-62.008,1.587c-22.199,0-42.736-0.596-62.008-1.587v-60.396c0-6.846,5.556-12.402,12.402-12.402
			h99.212c6.846,0,12.402,5.557,12.402,12.402V630.154z M520.945,593.967c-4.266,10.59-56.354,27.68-148.895,34.65v-58.858
			c0-20.513-16.691-37.205-37.205-37.205h-99.213c-20.487,0-37.205,16.692-37.205,37.205v58.834
			c-92.542-6.995-144.629-24.208-148.895-35.395L28.201,401.17c0.497,0.223,1.116,0.396,1.613,0.619
			c3.819,1.662,7.837,3.274,12.203,4.763c0.248,0.074,0.447,0.173,0.694,0.247c4.589,1.563,9.549,2.977,14.634,4.366
			c1.092,0.298,2.208,0.596,3.324,0.893c5.084,1.315,10.343,2.555,15.825,3.696c0.869,0.174,1.736,0.348,2.604,0.521
			c5.035,1.041,10.194,2.009,15.453,2.901c1.092,0.199,2.183,0.396,3.274,0.571c5.754,0.967,11.632,1.86,17.585,2.679
			c1.364,0.199,2.729,0.372,4.093,0.545c5.878,0.795,11.781,1.538,17.734,2.208c0.273,0.024,0.545,0.074,0.843,0.099
			c6.226,0.694,12.477,1.315,18.677,1.911c1.364,0.124,2.704,0.247,4.043,0.371c6.002,0.546,11.98,1.042,17.858,1.488
			c1.042,0.075,2.059,0.149,3.101,0.224c5.259,0.396,10.442,0.744,15.527,1.042c1.141,0.099,2.257,0.173,3.373,0.247
			c5.531,0.322,10.864,0.62,16.072,0.869c1.364,0.074,2.654,0.124,3.994,0.198c4.813,0.224,9.5,0.422,13.939,0.596
			c0.496,0.024,1.017,0.05,1.512,0.05c0.422,0.024,0.769,0.024,1.191,0.05c0.099,0,0.173,0.099,0.273,0.099
			c0.173,0,0.322-0.074,0.497-0.074c4.042,0.149,7.863,0.273,11.483,0.372c0.869,0.024,1.711,0.05,2.555,0.074
			c3.994,0.1,7.714,0.199,11.087,0.273c0.917,0.024,1.687,0.024,2.554,0.05c2.803,0.051,5.333,0.1,7.59,0.125
			c0.497,0,0.992,0.024,1.438,0.024c2.431,0.024,4.415,0.05,6.051,0.05c0.794,0,1.215,0,1.811,0c1.092,0,1.959,0,2.405,0h0.125
			c0.447,0,1.39,0,2.58,0c0.545,0,0.917,0,1.613,0c1.687,0,3.745-0.024,6.274-0.05c0.322,0,0.67,0,0.992-0.024
			c2.43-0.024,5.184-0.074,8.26-0.125c0.693-0.024,1.289-0.024,2.033-0.024c3.496-0.074,7.391-0.173,11.533-0.272
			c0.645-0.024,1.289-0.051,1.959-0.051c3.473-0.099,7.119-0.223,10.963-0.348c0.445,0.051,0.893,0.174,1.363,0.174
			c0.273,0,0.496-0.248,0.77-0.248c0.422-0.024,0.793-0.024,1.215-0.05c0.074,0,0.123,0,0.197,0
			c4.787-0.173,9.873-0.396,15.105-0.646c1.117-0.05,2.209-0.099,3.373-0.148c5.357-0.273,10.863-0.571,16.543-0.894
			c0.895-0.05,1.811-0.124,2.73-0.173c5.357-0.322,10.813-0.694,16.369-1.116c0.844-0.074,1.662-0.124,2.506-0.173
			c6.002-0.446,12.104-0.968,18.23-1.513c1.215-0.099,2.406-0.224,3.596-0.348c6.324-0.596,12.674-1.215,19.025-1.935
			c0.098,0,0.197-0.024,0.297-0.024c6.152-0.694,12.254-1.464,18.33-2.282c1.289-0.174,2.553-0.348,3.844-0.521
			c6.004-0.843,11.93-1.735,17.734-2.703c1.041-0.173,2.059-0.372,3.076-0.545c5.357-0.918,10.59-1.91,15.699-2.952
			c0.818-0.174,1.662-0.322,2.455-0.496c5.482-1.167,10.766-2.406,15.875-3.721c1.115-0.273,2.182-0.571,3.273-0.869
			c5.109-1.389,10.07-2.803,14.658-4.365c0.225-0.074,0.424-0.174,0.67-0.248c4.391-1.488,8.408-3.101,12.254-4.762
			c0.496-0.224,1.115-0.396,1.613-0.62L520.945,593.967z M544.037,372.422c-0.422,0.422-0.795,0.818-1.34,1.24
			c-0.67,0.521-1.563,1.042-2.432,1.587c-0.693,0.423-1.338,0.844-2.158,1.29c-1.064,0.57-2.33,1.141-3.596,1.711
			c-0.943,0.422-1.811,0.843-2.877,1.29c-1.438,0.595-3.125,1.19-4.787,1.81c-1.189,0.422-2.281,0.869-3.572,1.29
			c-1.834,0.619-3.893,1.215-5.928,1.835c-1.438,0.423-2.777,0.869-4.316,1.29c-2.207,0.619-4.688,1.24-7.117,1.86
			c-1.639,0.422-3.176,0.843-4.912,1.24c-2.654,0.646-5.58,1.265-8.482,1.885c-1.785,0.396-3.498,0.794-5.357,1.166
			c-3.102,0.646-6.475,1.24-9.799,1.86c-1.959,0.372-3.795,0.72-5.828,1.092c-3.398,0.595-7.068,1.166-10.689,1.735
			c-0.521,0.075-1.018,0.149-1.514,0.248l34.057-42.563c0.496-0.62,0.668-1.34,1.016-2.009c29.045,6.424,46.434,13.418,50.773,18.95
			C544.855,371.629,544.458,372.025,544.037,372.422z M545.673,272.117v-24.803l16.543,12.401L545.673,272.117z"/>
	</g>
</g>
</svg>
