<?xml version="1.0" encoding="utf-8"?>
<!-- Generator: Adobe Illustrator 21.0.0, SVG Export Plug-In . SVG Version: 6.00 Build 0)  -->
<svg version="1.1" id="Capa_1" xmlns="http://www.w3.org/2000/svg" xmlns:xlink="http://www.w3.org/1999/xlink" x="0px" y="0px"
	 viewBox="0 0 60 60" style="enable-background:new 0 0 60 60;" xml:space="preserve">
<style type="text/css">
	.st0{fill:#FFFFFF;}
</style>
<g>
	<path class="st0" d="M45,25H20c-0.6,0-1,0.4-1,1s0.4,1,1,1h25c0.6,0,1-0.4,1-1S45.6,25,45,25z"/>
	<path class="st0" d="M20,19h10c0.6,0,1-0.4,1-1s-0.4-1-1-1H20c-0.6,0-1,0.4-1,1S19.4,19,20,19z"/>
	<path class="st0" d="M45,33H20c-0.6,0-1,0.4-1,1s0.4,1,1,1h25c0.6,0,1-0.4,1-1S45.6,33,45,33z"/>
	<path class="st0" d="M45,41H20c-0.6,0-1,0.4-1,1s0.4,1,1,1h25c0.6,0,1-0.4,1-1S45.6,41,45,41z"/>
	<path class="st0" d="M45,49H20c-0.6,0-1,0.4-1,1s0.4,1,1,1h25c0.6,0,1-0.4,1-1S45.6,49,45,49z"/>
	<path class="st0" d="M49,14.6V0H6v55h5v5h43V19.6L49,14.6z M40,8.4l9,9l1.6,1.6H40V8.4z M8,53V2h39v10.6L39.4,5H11v48H8z M13,58v-3
		V7h25v14h14v37H13z"/>
</g>
</svg>
