<?xml version="1.0" encoding="utf-8"?>
<!-- Generator: Adobe Illustrator 16.0.0, SVG Export Plug-In . SVG Version: 6.00 Build 0)  -->
<!DOCTYPE svg PUBLIC "-//W3C//DTD SVG 1.1//EN" "http://www.w3.org/Graphics/SVG/1.1/DTD/svg11.dtd">
<svg version="1.1" id="Layer_1" xmlns="http://www.w3.org/2000/svg" xmlns:xlink="http://www.w3.org/1999/xlink" x="0px" y="0px"
	 width="595.281px" height="624px" viewBox="0 109.445 595.281 624" enable-background="new 0 109.445 595.281 624"
	 xml:space="preserve">
<g>
	<g>
		<g>
			<polygon fill="#FFFFFF" points="306.74,141.504 359.222,141.504 352.982,160.233 359.222,178.96 316.191,178.96 316.191,197.161 
				384.476,197.161 372.164,160.233 384.476,123.305 288.54,123.305 288.54,215.888 306.74,215.888 			"/>
			<path fill="#FFFFFF" d="M594.49,698.417l-46.574-0.092V443.441L306.74,248.645v-23.481h-18.199v23.481L47.365,443.441v253.897
				L0.38,697.958v20.628h594.521L594.49,698.417z M295.578,278.491l80.1,160.197H219.292L295.578,278.491z M381.3,512.897H213.98
				v-56.009H381.3V512.897z M409.128,531.096v18.905H399.5h-27.828v-18.905H409.128z M353.474,531.096v18.905H241.81v-18.905
				H353.474z M93.744,697.431l-28.18-0.057V456.888h28.18V697.431z M82.214,438.688l87.681-70.819l-70.82,70.819H82.214z
				 M195.781,697.632l-83.836-0.165V456.888h37.281v-18.2h-24.412l141.887-141.886l-67.564,141.886h-31.359v18.2h28.003v56.009
				h-27.828v55.305h27.828V697.632z M186.153,550.002v-18.905h37.457v18.905h-27.829H186.153z M381.3,697.997l-167.32-0.329V568.201
				H381.3V697.997z M483.337,698.198l-83.836-0.165V568.201h27.828v-55.305h-27.828v-56.009h28.002v-18.2h-31.479l-74.443-148.887
				l148.887,148.887h-24.412v18.2h37.281V698.198z M425.386,367.869l87.682,70.819h-16.861L425.386,367.869z M529.716,698.289
				l-28.18-0.056V456.888h28.18V698.289z"/>
		</g>
	</g>
</g>
</svg>
