<?xml version="1.0" encoding="utf-8"?>
<!-- Generator: Adobe Illustrator 16.0.0, SVG Export Plug-In . SVG Version: 6.00 Build 0)  -->
<!DOCTYPE svg PUBLIC "-//W3C//DTD SVG 1.1//EN" "http://www.w3.org/Graphics/SVG/1.1/DTD/svg11.dtd">
<svg version="1.1" id="Layer_1" xmlns="http://www.w3.org/2000/svg" xmlns:xlink="http://www.w3.org/1999/xlink" x="0px" y="0px"
	 width="595.281px" height="599px" viewBox="0 112.445 595.281 599" enable-background="new 0 112.445 595.281 599"
	 xml:space="preserve">
<path fill="#25BBCC" d="M525.273,414.239h51.152c0,152.927-123.135,277.1-275.666,278.76L525.273,414.239z"/>
<g>
	<path fill="#78E3EC" d="M296.195,718.583c-0.177,0.003,0.001,0.003,0.197,0.002c0.195,0.001,0.373,0.001,0.196-0.002
		c0.121-0.001,0.143-0.002-0.196-0.002C296.052,718.581,296.073,718.581,296.195,718.583z"/>
	<path fill="#78E3EC" d="M525.273,414.239H18.855c0,152.927,124.995,279.115,277.537,278.764
		C420.753,692.717,525.273,567.001,525.273,414.239z"/>
</g>
<path fill="#50D1DD" d="M300.755,135.479l224.516,278.76h51.152C576.425,261.312,453.291,137.139,300.755,135.479z"/>
<g>
	<path fill="#A0F6FA" d="M296.589,135.472c0.177-0.004-0.001-0.004-0.196-0.001c-0.195-0.002-0.373-0.002-0.196,0.001
		c-0.122,0.001-0.142,0.002,0.196,0.002S296.71,135.474,296.589,135.472z"/>
	<path fill="#A0F6FA" d="M296.392,135.475C143.851,135.124,18.855,261.312,18.855,414.239h506.418
		C525.273,261.477,420.753,135.761,296.392,135.475z"/>
</g>
<path fill="#2F5E88" d="M503.363,208.517c-54.953-54.949-128.012-85.212-205.723-85.212s-150.772,30.263-205.721,85.212
	C36.968,263.469,6.706,336.528,6.706,414.239c0,59.078,17.506,115.458,50.038,163.246L28.245,683.634l106.148-28.498
	c47.789,32.53,104.169,50.037,163.248,50.037c77.713,0,150.77-30.263,205.721-85.212c54.951-54.952,85.213-128.011,85.213-205.722
	S558.312,263.469,503.363,208.517z M233.908,150.054c-16.422,14.68-31.422,35.165-44.317,60.955
	c-6.868,13.735-12.953,28.602-18.22,44.378H77.289C114.728,203.602,169.94,165.486,233.908,150.054z M64.612,274.57h100.893
	c-11.066,39.557-17.282,83.897-18.041,130.078H26.076C27.729,357.219,41.587,312.842,64.612,274.57z M147.466,423.83
	c0.757,46.179,6.975,90.521,18.041,130.078H64.612C41.587,515.636,27.729,471.26,26.076,423.83H147.466z M77.29,573.091h94.081
	c5.266,15.778,11.352,30.643,18.22,44.378c12.896,25.789,27.894,46.276,44.317,60.955C169.94,662.992,114.728,624.876,77.29,573.091
	z M288.048,685.248c-30.237-4.674-58.806-31.37-81.299-76.357c-5.585-11.171-10.627-23.15-15.104-35.8h96.403V685.248z
	 M288.048,553.908H185.446c-11.522-39.128-18.01-83.57-18.797-130.078h121.399V553.908z M288.048,404.648H166.65
	c0.785-46.508,7.274-90.949,18.797-130.078h102.602L288.048,404.648L288.048,404.648z M288.048,255.387h-96.403
	c4.477-12.649,9.519-24.629,15.104-35.8c22.494-44.987,51.063-71.684,81.299-76.357V255.387z M569.203,404.648H447.814
	c-0.756-46.179-6.975-90.521-18.041-130.078h100.895C553.691,312.842,567.55,357.219,569.203,404.648z M517.99,255.387h-94.082
	c-5.266-15.778-11.352-30.643-18.219-44.378c-12.896-25.79-27.895-46.276-44.318-60.955
	C425.341,165.486,480.552,203.602,517.99,255.387z M307.23,143.23c30.238,4.674,58.807,31.37,81.299,76.357
	c5.586,11.171,10.627,23.15,15.105,35.8H307.23V143.23L307.23,143.23z M307.23,274.57h102.604
	c11.521,39.128,18.01,83.57,18.797,130.078h-121.4V274.57z M307.23,423.83h121.398c-0.785,46.508-7.273,90.949-18.797,130.078
	H307.23V423.83L307.23,423.83z M307.23,685.248V573.091h96.404c-4.479,12.649-9.52,24.629-15.105,35.8
	C366.037,653.878,337.468,680.574,307.23,685.248z M361.371,678.424c16.424-14.68,31.422-35.166,44.318-60.955
	c6.867-13.735,12.953-28.602,18.219-44.378h94.082C480.552,624.876,425.341,662.992,361.371,678.424z M530.667,553.908H429.773
	c11.066-39.558,17.283-83.897,18.041-130.078h121.391C567.55,471.26,553.691,515.636,530.667,553.908z"/>
</svg>
